<?xml version="1.0" encoding="utf-8"?>
<!-- Generator: Adobe Illustrator 17.0.0, SVG Export Plug-In . SVG Version: 6.00 Build 0)  -->
<!DOCTYPE svg PUBLIC "-//W3C//DTD SVG 1.1//EN" "http://www.w3.org/Graphics/SVG/1.1/DTD/svg11.dtd">
<svg version="1.1" id="Layer_1" xmlns="http://www.w3.org/2000/svg" xmlns:xlink="http://www.w3.org/1999/xlink" x="0px" y="0px"
	 width="2463px" height="800px" viewBox="0 0 2463 800" enable-background="new 0 0 2463 800" xml:space="preserve">
<rect fill="#FDFEFF" width="1280" height="800"/>
<rect x="64" y="525" fill="#C2B29B" width="76" height="76"/>
<rect x="64" y="69" fill="#686868" width="76" height="76"/>
<path fill="#686868" d="M83.052,367.129v3.443c-1.683-1.408-3.424-2.112-5.223-2.112c-1.983,0-3.653,0.711-5.01,2.137
	c-1.366,1.416-2.049,3.149-2.049,5.198c0,2.024,0.683,3.732,2.049,5.123c1.365,1.391,3.04,2.087,5.023,2.087
	c1.024,0,1.895-0.167,2.611-0.5c0.4-0.166,0.814-0.391,1.243-0.675c0.428-0.283,0.881-0.625,1.356-1.024v3.518
	c-1.667,0.945-3.416,1.418-5.249,1.418c-2.756,0-5.11-0.963-7.058-2.886c-1.941-1.941-2.912-4.281-2.912-7.022
	c0-2.457,0.812-4.648,2.437-6.571c1.999-2.358,4.586-3.537,7.759-3.537C79.761,365.724,81.435,366.192,83.052,367.129z"/>
<path fill="#686868" d="M89.636,366.099v11.611c0,1.656,0.27,2.868,0.812,3.633c0.808,1.108,1.945,1.661,3.411,1.661
	c1.475,0,2.615-0.554,3.423-1.661c0.542-0.741,0.813-1.951,0.813-3.633v-11.611h2.911v12.419c0,2.033-0.633,3.707-1.9,5.024
	c-1.424,1.466-3.173,2.198-5.247,2.198c-2.074,0-3.819-0.733-5.235-2.198c-1.267-1.317-1.899-2.991-1.899-5.024v-12.419H89.636z"/>
<path fill="#686868" d="M112.163,377.168l5.972,8.221h-3.56l-5.51-7.896h-0.525v7.896h-2.911v-19.291h3.411
	c2.549,0,4.389,0.479,5.522,1.437c1.248,1.066,1.873,2.474,1.873,4.222c0,1.367-0.391,2.541-1.174,3.524
	C114.478,376.265,113.446,376.894,112.163,377.168z M108.539,374.957h0.925c2.757,0,4.136-1.053,4.136-3.161
	c0-1.974-1.342-2.961-4.024-2.961h-1.037V374.957z"/>
<path fill="#686868" d="M131.941,368.96l-2.362,1.399c-0.442-0.766-0.862-1.266-1.262-1.499c-0.416-0.267-0.954-0.4-1.612-0.4
	c-0.808,0-1.479,0.229-2.012,0.688c-0.533,0.45-0.799,1.017-0.799,1.7c0,0.942,0.699,1.701,2.098,2.276l1.925,0.788
	c1.566,0.634,2.71,1.407,3.436,2.319c0.724,0.913,1.086,2.032,1.086,3.357c0,1.776-0.591,3.243-1.773,4.402
	c-1.192,1.167-2.671,1.751-4.436,1.751c-1.675,0-3.058-0.498-4.148-1.494c-1.075-0.995-1.746-2.392-2.012-4.192l2.948-0.649
	c0.134,1.133,0.368,1.916,0.7,2.348c0.599,0.833,1.473,1.25,2.623,1.25c0.908,0,1.661-0.304,2.261-0.912
	c0.6-0.607,0.901-1.377,0.901-2.31c0-0.374-0.053-0.717-0.157-1.029c-0.104-0.313-0.267-0.599-0.488-0.861
	c-0.219-0.262-0.504-0.508-0.856-0.737c-0.349-0.228-0.765-0.447-1.248-0.655l-1.862-0.774c-2.641-1.115-3.96-2.747-3.96-4.894
	c0-1.448,0.554-2.659,1.661-3.633c1.109-0.982,2.487-1.474,4.135-1.474C128.955,365.724,130.692,366.802,131.941,368.96z"/>
<path fill="#686868" d="M138.863,366.099v11.611c0,1.656,0.272,2.868,0.812,3.633c0.809,1.108,1.945,1.661,3.411,1.661
	c1.475,0,2.615-0.554,3.424-1.661c0.541-0.741,0.812-1.951,0.812-3.633v-11.611h2.911v12.419c0,2.033-0.633,3.707-1.899,5.024
	c-1.424,1.466-3.174,2.198-5.248,2.198c-2.074,0-3.82-0.733-5.235-2.198c-1.265-1.317-1.898-2.991-1.898-5.024v-12.419H138.863z"/>
<path fill="#686868" d="M165.764,368.96l-2.361,1.399c-0.442-0.766-0.862-1.266-1.263-1.499c-0.416-0.267-0.953-0.4-1.611-0.4
	c-0.808,0-1.479,0.229-2.012,0.688c-0.533,0.45-0.8,1.017-0.8,1.7c0,0.942,0.7,1.701,2.099,2.276l1.924,0.788
	c1.566,0.634,2.711,1.407,3.436,2.319c0.724,0.913,1.087,2.032,1.087,3.357c0,1.776-0.592,3.243-1.774,4.402
	c-1.191,1.167-2.67,1.751-4.435,1.751c-1.675,0-3.058-0.498-4.148-1.494c-1.075-0.995-1.746-2.392-2.011-4.192l2.947-0.649
	c0.134,1.133,0.367,1.916,0.701,2.348c0.599,0.833,1.475,1.25,2.623,1.25c0.909,0,1.662-0.304,2.262-0.912
	c0.6-0.607,0.899-1.377,0.899-2.31c0-0.374-0.052-0.717-0.155-1.029c-0.104-0.313-0.268-0.599-0.487-0.861
	c-0.221-0.262-0.507-0.508-0.856-0.737c-0.349-0.228-0.767-0.447-1.249-0.655l-1.862-0.774c-2.64-1.115-3.961-2.747-3.961-4.894
	c0-1.448,0.554-2.659,1.662-3.633c1.108-0.982,2.486-1.474,4.136-1.474C162.778,365.724,164.515,366.802,165.764,368.96z"/>
<path fill="#686868" d="M83.042,392.388v3.44c-1.682-1.406-3.422-2.11-5.22-2.11c-1.982,0-3.651,0.712-5.007,2.136
	c-1.365,1.414-2.048,3.146-2.048,5.194c0,2.023,0.683,3.729,2.048,5.12c1.364,1.389,3.038,2.084,5.019,2.084
	c1.024,0,1.894-0.166,2.61-0.499c0.4-0.166,0.813-0.391,1.242-0.674c0.428-0.284,0.881-0.624,1.355-1.024v3.515
	c-1.666,0.945-3.413,1.418-5.245,1.418c-2.755,0-5.107-0.962-7.054-2.885c-1.94-1.939-2.91-4.278-2.91-7.017
	c0-2.455,0.812-4.645,2.435-6.568c1.998-2.356,4.583-3.534,7.754-3.534C79.753,390.984,81.426,391.453,83.042,392.388z"/>
<path fill="#686868" d="M85.627,400.911c0-2.713,0.995-5.044,2.985-6.992c1.98-1.949,4.361-2.923,7.142-2.923
	c2.747,0,5.103,0.983,7.067,2.947c1.973,1.964,2.959,4.325,2.959,7.08c0,2.772-0.99,5.124-2.971,7.055
	c-1.99,1.94-4.392,2.91-7.204,2.91c-2.49,0-4.724-0.863-6.706-2.585C86.718,406.497,85.627,404,85.627,400.911z M88.56,400.942
	c0,2.129,0.715,3.88,2.148,5.252c1.424,1.372,3.068,2.058,4.932,2.058c2.023,0,3.729-0.698,5.12-2.096
	c1.389-1.413,2.085-3.135,2.085-5.164c0-2.054-0.686-3.776-2.061-5.165c-1.365-1.398-3.055-2.096-5.069-2.096
	c-2.007,0-3.7,0.698-5.082,2.096C89.252,397.208,88.56,398.913,88.56,400.942z"/>
<path fill="#686868" d="M112.348,391.358v16.546h5.669v2.734h-8.579v-19.279H112.348z"/>
<path fill="#686868" d="M123.685,391.358v16.546h5.669v2.734h-8.578v-19.279H123.685z"/>
<path fill="#686868" d="M142.752,394.093h-7.73v4.634h7.505v2.734h-7.505v6.444h7.73v2.734h-10.639v-19.279h10.639V394.093z"/>
<path fill="#686868" d="M156.488,400.599h7.966v0.636c0,1.449-0.171,2.731-0.512,3.846c-0.333,1.033-0.895,1.998-1.686,2.897
	c-1.79,2.014-4.066,3.021-6.83,3.021c-2.698,0-5.007-0.974-6.93-2.922c-1.923-1.956-2.884-4.304-2.884-7.042
	c0-2.798,0.978-5.17,2.934-7.118c1.956-1.956,4.337-2.935,7.142-2.935c1.506,0,2.913,0.307,4.22,0.919
	c1.248,0.613,2.477,1.61,3.684,2.989l-2.072,1.985c-1.582-2.106-3.51-3.159-5.782-3.159c-2.039,0-3.75,0.704-5.132,2.11
	c-1.381,1.382-2.073,3.114-2.073,5.195c0,2.148,0.77,3.917,2.311,5.307c1.44,1.29,3,1.935,4.682,1.935
	c1.432,0,2.719-0.482,3.859-1.445c1.139-0.971,1.777-2.134,1.91-3.487h-4.806V400.599z"/>
<path fill="#686868" d="M178.751,394.093h-7.729v4.634h7.505v2.734h-7.505v6.444h7.729v2.734h-10.639v-19.279h10.639V394.093z"/>
<path fill="#C2B29B" d="M178.751,246.767v19.034c-9.304-7.783-18.928-11.675-28.877-11.675c-10.962,0-20.196,3.937-27.702,11.813
	c-7.555,7.83-11.328,17.409-11.328,28.739c0,11.191,3.773,20.633,11.328,28.324c7.551,7.691,16.809,11.537,27.771,11.537
	c5.665,0,10.477-0.921,14.436-2.763c2.213-0.922,4.503-2.165,6.875-3.731c2.373-1.566,4.87-3.455,7.496-5.666v19.447
	c-9.213,5.227-18.884,7.841-29.015,7.841c-15.244,0-28.254-5.319-39.031-15.957c-10.731-10.731-16.097-23.672-16.097-38.826
	c0-13.586,4.491-25.698,13.473-36.337c11.054-13.032,25.354-19.55,42.9-19.55C160.56,238.996,169.815,241.588,178.751,246.767z"/>
<path fill="#686868" d="M151.977,230.108v19.034c-9.304-7.783-18.928-11.675-28.877-11.675c-10.962,0-20.196,3.937-27.702,11.813
	c-7.555,7.83-11.328,17.409-11.328,28.739c0,11.191,3.773,20.633,11.328,28.324c7.551,7.691,16.809,11.537,27.771,11.537
	c5.665,0,10.477-0.921,14.436-2.763c2.213-0.922,4.503-2.165,6.875-3.731c2.373-1.566,4.87-3.455,7.496-5.666v19.447
	c-9.213,5.227-18.884,7.841-29.015,7.841c-15.244,0-28.254-5.319-39.031-15.957c-10.731-10.731-16.097-23.672-16.097-38.826
	c0-13.586,4.491-25.698,13.473-36.337c11.054-13.032,25.354-19.55,42.9-19.55C133.786,222.337,143.041,224.929,151.977,230.108z"/>
<rect x="52" y="222" fill="#C2B29B" width="7" height="188"/>
<rect x="264" y="525" fill="#F2DF2F" width="76" height="76"/>
<path fill="#686868" d="M280.952,367.129v3.443c-1.683-1.408-3.424-2.112-5.223-2.112c-1.983,0-3.653,0.711-5.01,2.137
	c-1.366,1.416-2.049,3.149-2.049,5.198c0,2.024,0.683,3.732,2.049,5.123c1.365,1.391,3.04,2.087,5.023,2.087
	c1.024,0,1.895-0.167,2.611-0.5c0.4-0.166,0.814-0.391,1.243-0.675c0.428-0.283,0.881-0.625,1.356-1.024v3.518
	c-1.667,0.945-3.416,1.418-5.249,1.418c-2.756,0-5.11-0.963-7.058-2.886c-1.941-1.941-2.912-4.281-2.912-7.022
	c0-2.457,0.812-4.648,2.437-6.571c1.999-2.358,4.586-3.537,7.759-3.537C277.661,365.724,279.335,366.192,280.952,367.129z"/>
<path fill="#686868" d="M287.536,366.099v11.611c0,1.656,0.27,2.868,0.812,3.633c0.808,1.108,1.945,1.661,3.411,1.661
	c1.475,0,2.615-0.554,3.423-1.661c0.542-0.741,0.813-1.951,0.813-3.633v-11.611h2.911v12.419c0,2.033-0.633,3.707-1.9,5.024
	c-1.424,1.466-3.173,2.198-5.247,2.198c-2.074,0-3.819-0.733-5.235-2.198c-1.267-1.317-1.899-2.991-1.899-5.024v-12.419H287.536z"/>
<path fill="#686868" d="M310.063,377.168l5.972,8.221h-3.56l-5.51-7.896h-0.525v7.896h-2.911v-19.291h3.411
	c2.549,0,4.389,0.479,5.522,1.437c1.248,1.066,1.873,2.474,1.873,4.222c0,1.367-0.391,2.541-1.174,3.524
	C312.378,376.265,311.346,376.894,310.063,377.168z M306.439,374.957h0.925c2.757,0,4.136-1.053,4.136-3.161
	c0-1.974-1.342-2.961-4.024-2.961h-1.037V374.957z"/>
<path fill="#686868" d="M329.841,368.96l-2.362,1.399c-0.442-0.766-0.862-1.266-1.262-1.499c-0.416-0.267-0.954-0.4-1.612-0.4
	c-0.808,0-1.479,0.229-2.012,0.688c-0.533,0.45-0.799,1.017-0.799,1.7c0,0.942,0.699,1.701,2.098,2.276l1.925,0.788
	c1.566,0.634,2.71,1.407,3.436,2.319c0.724,0.913,1.086,2.032,1.086,3.357c0,1.776-0.591,3.243-1.773,4.402
	c-1.192,1.167-2.671,1.751-4.436,1.751c-1.675,0-3.058-0.498-4.148-1.494c-1.075-0.995-1.746-2.392-2.012-4.192l2.948-0.649
	c0.134,1.133,0.368,1.916,0.7,2.348c0.599,0.833,1.473,1.25,2.623,1.25c0.908,0,1.661-0.304,2.261-0.912
	c0.6-0.607,0.901-1.377,0.901-2.31c0-0.374-0.053-0.717-0.157-1.029c-0.104-0.313-0.267-0.599-0.488-0.861
	c-0.219-0.262-0.504-0.508-0.856-0.737c-0.349-0.228-0.765-0.447-1.248-0.655l-1.862-0.774c-2.641-1.115-3.96-2.747-3.96-4.894
	c0-1.448,0.554-2.659,1.661-3.633c1.109-0.982,2.487-1.474,4.135-1.474C326.855,365.724,328.592,366.802,329.841,368.96z"/>
<path fill="#686868" d="M336.763,366.099v11.611c0,1.656,0.272,2.868,0.812,3.633c0.809,1.108,1.945,1.661,3.411,1.661
	c1.475,0,2.615-0.554,3.424-1.661c0.541-0.741,0.812-1.951,0.812-3.633v-11.611h2.911v12.419c0,2.033-0.633,3.707-1.899,5.024
	c-1.424,1.466-3.174,2.198-5.248,2.198s-3.82-0.733-5.235-2.198c-1.265-1.317-1.898-2.991-1.898-5.024v-12.419H336.763z"/>
<path fill="#686868" d="M363.664,368.96l-2.361,1.399c-0.442-0.766-0.862-1.266-1.263-1.499c-0.416-0.267-0.953-0.4-1.611-0.4
	c-0.808,0-1.479,0.229-2.012,0.688c-0.533,0.45-0.8,1.017-0.8,1.7c0,0.942,0.7,1.701,2.099,2.276l1.924,0.788
	c1.566,0.634,2.711,1.407,3.436,2.319c0.724,0.913,1.087,2.032,1.087,3.357c0,1.776-0.592,3.243-1.774,4.402
	c-1.191,1.167-2.67,1.751-4.435,1.751c-1.675,0-3.058-0.498-4.148-1.494c-1.075-0.995-1.746-2.392-2.011-4.192l2.947-0.649
	c0.134,1.133,0.367,1.916,0.701,2.348c0.599,0.833,1.475,1.25,2.623,1.25c0.909,0,1.662-0.304,2.262-0.912
	c0.6-0.607,0.899-1.377,0.899-2.31c0-0.374-0.052-0.717-0.155-1.029c-0.104-0.313-0.268-0.599-0.487-0.861
	c-0.221-0.262-0.507-0.508-0.856-0.737c-0.349-0.228-0.767-0.447-1.249-0.655l-1.862-0.774c-2.64-1.115-3.961-2.747-3.961-4.894
	c0-1.448,0.554-2.659,1.662-3.633c1.108-0.982,2.486-1.474,4.136-1.474C360.678,365.724,362.415,366.802,363.664,368.96z"/>
<path fill="#686868" d="M280.942,392.388v3.44c-1.682-1.406-3.422-2.11-5.22-2.11c-1.982,0-3.651,0.712-5.007,2.136
	c-1.365,1.414-2.048,3.146-2.048,5.194c0,2.023,0.683,3.729,2.048,5.12c1.364,1.389,3.038,2.084,5.019,2.084
	c1.024,0,1.894-0.166,2.61-0.499c0.4-0.166,0.813-0.391,1.242-0.674c0.428-0.284,0.881-0.624,1.355-1.024v3.515
	c-1.666,0.945-3.413,1.418-5.245,1.418c-2.755,0-5.107-0.962-7.054-2.885c-1.94-1.939-2.91-4.278-2.91-7.017
	c0-2.455,0.812-4.645,2.435-6.568c1.998-2.356,4.583-3.534,7.754-3.534C277.653,390.984,279.326,391.453,280.942,392.388z"/>
<path fill="#686868" d="M283.527,400.911c0-2.713,0.995-5.044,2.985-6.992c1.98-1.949,4.361-2.923,7.142-2.923
	c2.747,0,5.103,0.983,7.067,2.947c1.973,1.964,2.959,4.325,2.959,7.08c0,2.772-0.99,5.124-2.971,7.055
	c-1.99,1.94-4.392,2.91-7.204,2.91c-2.49,0-4.724-0.863-6.706-2.585C284.618,406.497,283.527,404,283.527,400.911z M286.46,400.942
	c0,2.129,0.715,3.88,2.148,5.252c1.424,1.372,3.068,2.058,4.932,2.058c2.023,0,3.729-0.698,5.12-2.096
	c1.389-1.413,2.085-3.135,2.085-5.164c0-2.054-0.686-3.776-2.061-5.165c-1.365-1.398-3.055-2.096-5.069-2.096
	c-2.007,0-3.7,0.698-5.082,2.096C287.152,397.208,286.46,398.913,286.46,400.942z"/>
<path fill="#686868" d="M310.248,391.358v16.546h5.669v2.734h-8.579v-19.279H310.248z"/>
<path fill="#686868" d="M321.585,391.358v16.546h5.669v2.734h-8.578v-19.279H321.585z"/>
<path fill="#686868" d="M340.652,394.093h-7.73v4.634h7.505v2.734h-7.505v6.444h7.73v2.734h-10.639v-19.279h10.639V394.093z"/>
<path fill="#686868" d="M354.388,400.599h7.966v0.636c0,1.449-0.171,2.731-0.512,3.846c-0.333,1.033-0.895,1.998-1.686,2.897
	c-1.79,2.014-4.066,3.021-6.83,3.021c-2.698,0-5.007-0.974-6.93-2.922c-1.923-1.956-2.884-4.304-2.884-7.042
	c0-2.798,0.978-5.17,2.934-7.118c1.956-1.956,4.337-2.935,7.142-2.935c1.506,0,2.913,0.307,4.22,0.919
	c1.248,0.613,2.477,1.61,3.684,2.989l-2.072,1.985c-1.582-2.106-3.51-3.159-5.782-3.159c-2.039,0-3.75,0.704-5.132,2.11
	c-1.381,1.382-2.073,3.114-2.073,5.195c0,2.148,0.77,3.917,2.311,5.307c1.44,1.29,3,1.935,4.682,1.935
	c1.432,0,2.719-0.482,3.859-1.445c1.139-0.971,1.777-2.134,1.91-3.487h-4.806V400.599z"/>
<path fill="#686868" d="M376.651,394.093h-7.729v4.634h7.505v2.734h-7.505v6.444h7.729v2.734h-10.639v-19.279h10.639V394.093z"/>
<path fill="#F2DF2F" d="M376.651,246.767v19.034c-9.304-7.783-18.928-11.675-28.877-11.675c-10.962,0-20.196,3.937-27.702,11.813
	c-7.555,7.83-11.328,17.409-11.328,28.739c0,11.191,3.773,20.633,11.328,28.324c7.551,7.691,16.809,11.537,27.771,11.537
	c5.665,0,10.477-0.921,14.436-2.763c2.213-0.922,4.503-2.165,6.875-3.731c2.373-1.566,4.87-3.455,7.496-5.666v19.447
	c-9.213,5.227-18.884,7.841-29.015,7.841c-15.244,0-28.254-5.319-39.031-15.957c-10.731-10.731-16.097-23.672-16.097-38.826
	c0-13.586,4.491-25.698,13.473-36.337c11.054-13.032,25.354-19.55,42.9-19.55C358.46,238.996,367.715,241.588,376.651,246.767z"/>
<path fill="#686868" d="M349.877,230.108v19.034c-9.304-7.783-18.928-11.675-28.877-11.675c-10.962,0-20.196,3.937-27.702,11.813
	c-7.555,7.83-11.328,17.409-11.328,28.739c0,11.191,3.773,20.633,11.328,28.324c7.551,7.691,16.809,11.537,27.771,11.537
	c5.665,0,10.477-0.921,14.436-2.763c2.213-0.922,4.503-2.165,6.875-3.731c2.373-1.566,4.87-3.455,7.496-5.666v19.447
	c-9.214,5.227-18.884,7.841-29.015,7.841c-15.244,0-28.254-5.319-39.031-15.957c-10.731-10.731-16.097-23.672-16.097-38.826
	c0-13.586,4.491-25.698,13.473-36.337c11.054-13.032,25.354-19.55,42.9-19.55C331.686,222.337,340.941,224.929,349.877,230.108z"/>
<rect x="250" y="222" fill="#F2DF2F" width="7" height="188"/>
<rect x="460" y="525" fill="#F96C35" width="76" height="76"/>
<path fill="#686868" d="M479.052,367.129v3.443c-1.683-1.408-3.424-2.112-5.223-2.112c-1.983,0-3.653,0.711-5.01,2.137
	c-1.366,1.416-2.049,3.149-2.049,5.198c0,2.024,0.683,3.732,2.049,5.123c1.365,1.391,3.04,2.087,5.023,2.087
	c1.024,0,1.895-0.167,2.611-0.5c0.4-0.166,0.814-0.391,1.243-0.675c0.428-0.283,0.881-0.625,1.356-1.024v3.518
	c-1.667,0.945-3.416,1.418-5.249,1.418c-2.756,0-5.11-0.963-7.058-2.886c-1.941-1.941-2.912-4.281-2.912-7.022
	c0-2.457,0.812-4.648,2.437-6.571c1.999-2.358,4.586-3.537,7.759-3.537C475.761,365.724,477.435,366.192,479.052,367.129z"/>
<path fill="#686868" d="M485.636,366.099v11.611c0,1.656,0.27,2.868,0.812,3.633c0.808,1.108,1.945,1.661,3.411,1.661
	c1.475,0,2.615-0.554,3.423-1.661c0.542-0.741,0.813-1.951,0.813-3.633v-11.611h2.911v12.419c0,2.033-0.633,3.707-1.9,5.024
	c-1.424,1.466-3.173,2.198-5.247,2.198c-2.074,0-3.819-0.733-5.235-2.198c-1.267-1.317-1.899-2.991-1.899-5.024v-12.419H485.636z"/>
<path fill="#686868" d="M508.163,377.168l5.972,8.221h-3.56l-5.51-7.896h-0.525v7.896h-2.911v-19.291h3.411
	c2.549,0,4.389,0.479,5.522,1.437c1.248,1.066,1.873,2.474,1.873,4.222c0,1.367-0.391,2.541-1.174,3.524
	C510.478,376.265,509.446,376.894,508.163,377.168z M504.539,374.957h0.925c2.757,0,4.136-1.053,4.136-3.161
	c0-1.974-1.342-2.961-4.024-2.961h-1.037V374.957z"/>
<path fill="#686868" d="M527.941,368.96l-2.362,1.399c-0.442-0.766-0.862-1.266-1.262-1.499c-0.416-0.267-0.954-0.4-1.612-0.4
	c-0.808,0-1.479,0.229-2.012,0.688c-0.533,0.45-0.799,1.017-0.799,1.7c0,0.942,0.699,1.701,2.098,2.276l1.925,0.788
	c1.566,0.634,2.71,1.407,3.436,2.319c0.724,0.913,1.086,2.032,1.086,3.357c0,1.776-0.591,3.243-1.773,4.402
	c-1.192,1.167-2.671,1.751-4.436,1.751c-1.675,0-3.058-0.498-4.148-1.494c-1.075-0.995-1.746-2.392-2.012-4.192l2.948-0.649
	c0.134,1.133,0.368,1.916,0.701,2.348c0.599,0.833,1.473,1.25,2.623,1.25c0.908,0,1.661-0.304,2.261-0.912
	c0.6-0.607,0.901-1.377,0.901-2.31c0-0.374-0.053-0.717-0.157-1.029c-0.104-0.313-0.267-0.599-0.488-0.861
	c-0.219-0.262-0.504-0.508-0.856-0.737c-0.349-0.228-0.765-0.447-1.248-0.655l-1.862-0.774c-2.641-1.115-3.96-2.747-3.96-4.894
	c0-1.448,0.554-2.659,1.661-3.633c1.109-0.982,2.487-1.474,4.135-1.474C524.955,365.724,526.692,366.802,527.941,368.96z"/>
<path fill="#686868" d="M534.863,366.099v11.611c0,1.656,0.272,2.868,0.812,3.633c0.809,1.108,1.945,1.661,3.411,1.661
	c1.475,0,2.615-0.554,3.424-1.661c0.541-0.741,0.812-1.951,0.812-3.633v-11.611h2.911v12.419c0,2.033-0.633,3.707-1.899,5.024
	c-1.424,1.466-3.174,2.198-5.248,2.198s-3.82-0.733-5.235-2.198c-1.265-1.317-1.898-2.991-1.898-5.024v-12.419H534.863z"/>
<path fill="#686868" d="M561.764,368.96l-2.361,1.399c-0.442-0.766-0.862-1.266-1.263-1.499c-0.416-0.267-0.953-0.4-1.611-0.4
	c-0.808,0-1.479,0.229-2.012,0.688c-0.533,0.45-0.8,1.017-0.8,1.7c0,0.942,0.701,1.701,2.099,2.276l1.924,0.788
	c1.566,0.634,2.711,1.407,3.436,2.319c0.724,0.913,1.087,2.032,1.087,3.357c0,1.776-0.592,3.243-1.774,4.402
	c-1.191,1.167-2.67,1.751-4.435,1.751c-1.675,0-3.058-0.498-4.148-1.494c-1.075-0.995-1.745-2.392-2.011-4.192l2.947-0.649
	c0.134,1.133,0.367,1.916,0.701,2.348c0.599,0.833,1.475,1.25,2.623,1.25c0.909,0,1.662-0.304,2.262-0.912
	c0.6-0.607,0.899-1.377,0.899-2.31c0-0.374-0.052-0.717-0.155-1.029c-0.104-0.313-0.268-0.599-0.487-0.861
	c-0.221-0.262-0.506-0.508-0.856-0.737c-0.349-0.228-0.767-0.447-1.249-0.655l-1.862-0.774c-2.64-1.115-3.961-2.747-3.961-4.894
	c0-1.448,0.554-2.659,1.662-3.633c1.108-0.982,2.486-1.474,4.136-1.474C558.778,365.724,560.515,366.802,561.764,368.96z"/>
<path fill="#686868" d="M479.042,392.388v3.44c-1.682-1.406-3.422-2.11-5.22-2.11c-1.982,0-3.651,0.712-5.007,2.136
	c-1.365,1.414-2.048,3.146-2.048,5.194c0,2.023,0.683,3.729,2.048,5.12c1.364,1.389,3.038,2.084,5.019,2.084
	c1.024,0,1.894-0.166,2.61-0.499c0.4-0.166,0.813-0.391,1.242-0.674c0.428-0.284,0.881-0.624,1.355-1.024v3.515
	c-1.666,0.945-3.413,1.418-5.245,1.418c-2.755,0-5.107-0.962-7.054-2.885c-1.94-1.939-2.91-4.278-2.91-7.017
	c0-2.455,0.812-4.645,2.435-6.568c1.998-2.356,4.583-3.534,7.754-3.534C475.753,390.984,477.426,391.453,479.042,392.388z"/>
<path fill="#686868" d="M481.627,400.911c0-2.713,0.995-5.044,2.985-6.992c1.98-1.949,4.361-2.923,7.142-2.923
	c2.747,0,5.103,0.983,7.067,2.947c1.973,1.964,2.959,4.325,2.959,7.08c0,2.772-0.99,5.124-2.971,7.055
	c-1.99,1.94-4.392,2.91-7.204,2.91c-2.49,0-4.724-0.863-6.706-2.585C482.718,406.497,481.627,404,481.627,400.911z M484.56,400.942
	c0,2.129,0.715,3.88,2.148,5.252c1.424,1.372,3.068,2.058,4.932,2.058c2.023,0,3.729-0.698,5.12-2.096
	c1.389-1.413,2.085-3.135,2.085-5.164c0-2.054-0.686-3.776-2.061-5.165c-1.365-1.398-3.055-2.096-5.069-2.096
	c-2.007,0-3.7,0.698-5.082,2.096C485.252,397.208,484.56,398.913,484.56,400.942z"/>
<path fill="#686868" d="M508.348,391.358v16.546h5.669v2.734h-8.579v-19.279H508.348z"/>
<path fill="#686868" d="M519.685,391.358v16.546h5.669v2.734h-8.578v-19.279H519.685z"/>
<path fill="#686868" d="M538.752,394.093h-7.73v4.634h7.505v2.734h-7.505v6.444h7.73v2.734h-10.639v-19.279h10.639V394.093z"/>
<path fill="#686868" d="M552.488,400.599h7.966v0.636c0,1.449-0.171,2.731-0.512,3.846c-0.333,1.033-0.895,1.998-1.686,2.897
	c-1.79,2.014-4.066,3.021-6.83,3.021c-2.698,0-5.007-0.974-6.93-2.922c-1.923-1.956-2.884-4.304-2.884-7.042
	c0-2.798,0.977-5.17,2.934-7.118c1.956-1.956,4.337-2.935,7.142-2.935c1.506,0,2.913,0.307,4.22,0.919
	c1.248,0.613,2.477,1.61,3.684,2.989l-2.072,1.985c-1.582-2.106-3.51-3.159-5.782-3.159c-2.039,0-3.75,0.704-5.132,2.11
	c-1.381,1.382-2.073,3.114-2.073,5.195c0,2.148,0.77,3.917,2.311,5.307c1.44,1.29,3,1.935,4.682,1.935
	c1.432,0,2.719-0.482,3.859-1.445c1.139-0.971,1.777-2.134,1.91-3.487h-4.806V400.599z"/>
<path fill="#686868" d="M574.751,394.093h-7.729v4.634h7.505v2.734h-7.505v6.444h7.729v2.734h-10.639v-19.279h10.639V394.093z"/>
<path fill="#F96C35" d="M574.751,246.767v19.034c-9.304-7.783-18.928-11.675-28.877-11.675c-10.962,0-20.196,3.937-27.702,11.813
	c-7.555,7.83-11.328,17.409-11.328,28.739c0,11.191,3.773,20.633,11.328,28.324c7.551,7.691,16.809,11.537,27.771,11.537
	c5.665,0,10.477-0.921,14.436-2.763c2.213-0.922,4.503-2.165,6.875-3.731c2.373-1.566,4.87-3.455,7.496-5.666v19.447
	c-9.214,5.227-18.884,7.841-29.016,7.841c-15.244,0-28.255-5.319-39.031-15.957c-10.731-10.731-16.097-23.672-16.097-38.826
	c0-13.586,4.491-25.698,13.473-36.337c11.054-13.032,25.354-19.55,42.9-19.55C556.56,238.996,565.815,241.588,574.751,246.767z"/>
<path fill="#686868" d="M547.977,230.108v19.034c-9.304-7.783-18.928-11.675-28.877-11.675c-10.962,0-20.196,3.937-27.702,11.813
	c-7.555,7.83-11.328,17.409-11.328,28.739c0,11.191,3.773,20.633,11.328,28.324c7.551,7.691,16.809,11.537,27.771,11.537
	c5.665,0,10.477-0.921,14.436-2.763c2.213-0.922,4.503-2.165,6.875-3.731c2.373-1.566,4.87-3.455,7.496-5.666v19.447
	c-9.213,5.227-18.884,7.841-29.015,7.841c-15.244,0-28.255-5.319-39.031-15.957c-10.731-10.731-16.097-23.672-16.097-38.826
	c0-13.586,4.491-25.698,13.473-36.337c11.054-13.032,25.354-19.55,42.9-19.55C529.786,222.337,539.041,224.929,547.977,230.108z"/>
<rect x="448" y="222" fill="#F96C35" width="7" height="188"/>
<rect x="660" y="525" fill="#FC5EB9" width="76" height="76"/>
<path fill="#686868" d="M676.952,367.129v3.443c-1.683-1.408-3.424-2.112-5.223-2.112c-1.983,0-3.653,0.711-5.01,2.137
	c-1.366,1.416-2.049,3.149-2.049,5.198c0,2.024,0.683,3.732,2.049,5.123c1.365,1.391,3.04,2.087,5.023,2.087
	c1.024,0,1.895-0.167,2.611-0.5c0.4-0.166,0.814-0.391,1.243-0.675c0.428-0.283,0.881-0.625,1.356-1.024v3.518
	c-1.667,0.945-3.416,1.418-5.249,1.418c-2.756,0-5.11-0.963-7.058-2.886c-1.941-1.941-2.912-4.281-2.912-7.022
	c0-2.457,0.812-4.648,2.437-6.571c1.999-2.358,4.586-3.537,7.759-3.537C673.661,365.724,675.335,366.192,676.952,367.129z"/>
<path fill="#686868" d="M683.536,366.099v11.611c0,1.656,0.27,2.868,0.812,3.633c0.808,1.108,1.945,1.661,3.411,1.661
	c1.475,0,2.615-0.554,3.423-1.661c0.542-0.741,0.813-1.951,0.813-3.633v-11.611h2.911v12.419c0,2.033-0.633,3.707-1.9,5.024
	c-1.424,1.466-3.173,2.198-5.247,2.198c-2.074,0-3.819-0.733-5.235-2.198c-1.267-1.317-1.899-2.991-1.899-5.024v-12.419H683.536z"/>
<path fill="#686868" d="M706.063,377.168l5.972,8.221h-3.56l-5.51-7.896h-0.525v7.896h-2.911v-19.291h3.411
	c2.549,0,4.389,0.479,5.522,1.437c1.248,1.066,1.873,2.474,1.873,4.222c0,1.367-0.391,2.541-1.174,3.524
	C708.378,376.265,707.346,376.894,706.063,377.168z M702.439,374.957h0.925c2.757,0,4.136-1.053,4.136-3.161
	c0-1.974-1.342-2.961-4.024-2.961h-1.037V374.957z"/>
<path fill="#686868" d="M725.841,368.96l-2.362,1.399c-0.442-0.766-0.862-1.266-1.262-1.499c-0.416-0.267-0.954-0.4-1.612-0.4
	c-0.807,0-1.479,0.229-2.012,0.688c-0.533,0.45-0.799,1.017-0.799,1.7c0,0.942,0.699,1.701,2.098,2.276l1.925,0.788
	c1.566,0.634,2.71,1.407,3.436,2.319c0.724,0.913,1.086,2.032,1.086,3.357c0,1.776-0.591,3.243-1.773,4.402
	c-1.192,1.167-2.671,1.751-4.436,1.751c-1.675,0-3.058-0.498-4.148-1.494c-1.075-0.995-1.745-2.392-2.012-4.192l2.948-0.649
	c0.134,1.133,0.368,1.916,0.7,2.348c0.599,0.833,1.473,1.25,2.623,1.25c0.908,0,1.661-0.304,2.261-0.912
	c0.6-0.607,0.901-1.377,0.901-2.31c0-0.374-0.053-0.717-0.157-1.029c-0.104-0.313-0.267-0.599-0.488-0.861
	c-0.219-0.262-0.504-0.508-0.856-0.737c-0.349-0.228-0.765-0.447-1.248-0.655l-1.862-0.774c-2.641-1.115-3.96-2.747-3.96-4.894
	c0-1.448,0.554-2.659,1.661-3.633c1.109-0.982,2.487-1.474,4.135-1.474C722.855,365.724,724.592,366.802,725.841,368.96z"/>
<path fill="#686868" d="M732.763,366.099v11.611c0,1.656,0.272,2.868,0.812,3.633c0.809,1.108,1.945,1.661,3.411,1.661
	c1.475,0,2.615-0.554,3.424-1.661c0.541-0.741,0.812-1.951,0.812-3.633v-11.611h2.911v12.419c0,2.033-0.633,3.707-1.899,5.024
	c-1.424,1.466-3.174,2.198-5.248,2.198c-2.074,0-3.82-0.733-5.235-2.198c-1.265-1.317-1.898-2.991-1.898-5.024v-12.419H732.763z"/>
<path fill="#686868" d="M759.664,368.96l-2.361,1.399c-0.442-0.766-0.862-1.266-1.263-1.499c-0.416-0.267-0.953-0.4-1.611-0.4
	c-0.808,0-1.479,0.229-2.012,0.688c-0.533,0.45-0.799,1.017-0.799,1.7c0,0.942,0.7,1.701,2.099,2.276l1.924,0.788
	c1.566,0.634,2.711,1.407,3.436,2.319c0.724,0.913,1.087,2.032,1.087,3.357c0,1.776-0.592,3.243-1.774,4.402
	c-1.191,1.167-2.67,1.751-4.435,1.751c-1.675,0-3.058-0.498-4.148-1.494c-1.075-0.995-1.745-2.392-2.011-4.192l2.947-0.649
	c0.135,1.133,0.367,1.916,0.701,2.348c0.599,0.833,1.475,1.25,2.623,1.25c0.909,0,1.662-0.304,2.262-0.912
	c0.6-0.607,0.899-1.377,0.899-2.31c0-0.374-0.052-0.717-0.155-1.029c-0.104-0.313-0.268-0.599-0.487-0.861
	c-0.221-0.262-0.507-0.508-0.856-0.737c-0.349-0.228-0.767-0.447-1.249-0.655l-1.862-0.774c-2.64-1.115-3.961-2.747-3.961-4.894
	c0-1.448,0.554-2.659,1.662-3.633c1.108-0.982,2.486-1.474,4.136-1.474C756.678,365.724,758.415,366.802,759.664,368.96z"/>
<path fill="#686868" d="M676.942,392.388v3.44c-1.682-1.406-3.422-2.11-5.22-2.11c-1.982,0-3.651,0.712-5.007,2.136
	c-1.365,1.414-2.048,3.146-2.048,5.194c0,2.023,0.683,3.729,2.048,5.12c1.364,1.389,3.038,2.084,5.019,2.084
	c1.024,0,1.894-0.166,2.61-0.499c0.4-0.166,0.813-0.391,1.242-0.674c0.428-0.284,0.881-0.624,1.355-1.024v3.515
	c-1.666,0.945-3.413,1.418-5.245,1.418c-2.755,0-5.107-0.962-7.054-2.885c-1.94-1.939-2.91-4.278-2.91-7.017
	c0-2.455,0.812-4.645,2.435-6.568c1.998-2.356,4.583-3.534,7.754-3.534C673.653,390.984,675.326,391.453,676.942,392.388z"/>
<path fill="#686868" d="M679.527,400.911c0-2.713,0.995-5.044,2.985-6.992c1.98-1.949,4.361-2.923,7.142-2.923
	c2.747,0,5.103,0.983,7.067,2.947c1.973,1.964,2.959,4.325,2.959,7.08c0,2.772-0.99,5.124-2.971,7.055
	c-1.99,1.94-4.392,2.91-7.204,2.91c-2.49,0-4.724-0.863-6.706-2.585C680.618,406.497,679.527,404,679.527,400.911z M682.46,400.942
	c0,2.129,0.715,3.88,2.148,5.252c1.424,1.372,3.068,2.058,4.932,2.058c2.023,0,3.729-0.698,5.12-2.096
	c1.389-1.413,2.085-3.135,2.085-5.164c0-2.054-0.686-3.776-2.061-5.165c-1.365-1.398-3.055-2.096-5.069-2.096
	c-2.007,0-3.7,0.698-5.082,2.096C683.152,397.208,682.46,398.913,682.46,400.942z"/>
<path fill="#686868" d="M706.248,391.358v16.546h5.669v2.734h-8.579v-19.279H706.248z"/>
<path fill="#686868" d="M717.585,391.358v16.546h5.669v2.734h-8.578v-19.279H717.585z"/>
<path fill="#686868" d="M736.652,394.093h-7.73v4.634h7.505v2.734h-7.505v6.444h7.73v2.734h-10.639v-19.279h10.639V394.093z"/>
<path fill="#686868" d="M750.388,400.599h7.966v0.636c0,1.449-0.171,2.731-0.512,3.846c-0.333,1.033-0.895,1.998-1.686,2.897
	c-1.79,2.014-4.066,3.021-6.83,3.021c-2.698,0-5.007-0.974-6.93-2.922c-1.923-1.956-2.884-4.304-2.884-7.042
	c0-2.798,0.978-5.17,2.934-7.118c1.956-1.956,4.337-2.935,7.142-2.935c1.506,0,2.913,0.307,4.22,0.919
	c1.248,0.613,2.477,1.61,3.683,2.989l-2.072,1.985c-1.582-2.106-3.51-3.159-5.782-3.159c-2.039,0-3.75,0.704-5.132,2.11
	c-1.381,1.382-2.073,3.114-2.073,5.195c0,2.148,0.77,3.917,2.311,5.307c1.44,1.29,3,1.935,4.682,1.935
	c1.432,0,2.719-0.482,3.859-1.445c1.139-0.971,1.777-2.134,1.91-3.487h-4.806V400.599z"/>
<path fill="#686868" d="M772.651,394.093h-7.729v4.634h7.505v2.734h-7.505v6.444h7.729v2.734h-10.639v-19.279h10.639V394.093z"/>
<path fill="#FC5EB9" d="M772.651,246.767v19.034c-9.304-7.783-18.928-11.675-28.877-11.675c-10.962,0-20.196,3.937-27.702,11.813
	c-7.555,7.83-11.328,17.409-11.328,28.739c0,11.191,3.773,20.633,11.328,28.324c7.551,7.691,16.809,11.537,27.771,11.537
	c5.665,0,10.477-0.921,14.436-2.763c2.213-0.922,4.503-2.165,6.875-3.731c2.373-1.566,4.87-3.455,7.496-5.666v19.447
	c-9.214,5.227-18.884,7.841-29.016,7.841c-15.244,0-28.254-5.319-39.031-15.957c-10.731-10.731-16.097-23.672-16.097-38.826
	c0-13.586,4.491-25.698,13.473-36.337c11.054-13.032,25.354-19.55,42.9-19.55C754.46,238.996,763.715,241.588,772.651,246.767z"/>
<path fill="#686868" d="M745.877,230.108v19.034c-9.304-7.783-18.928-11.675-28.877-11.675c-10.962,0-20.196,3.937-27.702,11.813
	c-7.555,7.83-11.328,17.409-11.328,28.739c0,11.191,3.773,20.633,11.328,28.324c7.551,7.691,16.809,11.537,27.771,11.537
	c5.665,0,10.477-0.921,14.436-2.763c2.213-0.922,4.503-2.165,6.875-3.731c2.373-1.566,4.87-3.455,7.496-5.666v19.447
	c-9.214,5.227-18.884,7.841-29.016,7.841c-15.244,0-28.254-5.319-39.031-15.957c-10.731-10.731-16.097-23.672-16.097-38.826
	c0-13.586,4.491-25.698,13.473-36.337c11.054-13.032,25.354-19.55,42.9-19.55C727.686,222.337,736.941,224.929,745.877,230.108z"/>
<rect x="646" y="222" fill="#FC5EB9" width="7" height="188"/>
<rect x="856" y="525" fill="#8092FF" width="76" height="76"/>
<path fill="#686868" d="M875.052,367.129v3.443c-1.683-1.408-3.424-2.112-5.223-2.112c-1.983,0-3.653,0.711-5.01,2.137
	c-1.366,1.416-2.049,3.149-2.049,5.198c0,2.024,0.683,3.732,2.049,5.123c1.365,1.391,3.04,2.087,5.023,2.087
	c1.024,0,1.895-0.167,2.611-0.5c0.4-0.166,0.814-0.391,1.243-0.675c0.428-0.283,0.881-0.625,1.356-1.024v3.518
	c-1.667,0.945-3.416,1.418-5.249,1.418c-2.756,0-5.11-0.963-7.058-2.886c-1.941-1.941-2.912-4.281-2.912-7.022
	c0-2.457,0.812-4.648,2.437-6.571c1.999-2.358,4.586-3.537,7.759-3.537C871.761,365.724,873.435,366.192,875.052,367.129z"/>
<path fill="#686868" d="M881.636,366.099v11.611c0,1.656,0.27,2.868,0.812,3.633c0.808,1.108,1.945,1.661,3.411,1.661
	c1.475,0,2.615-0.554,3.423-1.661c0.542-0.741,0.813-1.951,0.813-3.633v-11.611h2.911v12.419c0,2.033-0.633,3.707-1.9,5.024
	c-1.424,1.466-3.173,2.198-5.247,2.198c-2.074,0-3.819-0.733-5.235-2.198c-1.267-1.317-1.899-2.991-1.899-5.024v-12.419H881.636z"/>
<path fill="#686868" d="M904.163,377.168l5.972,8.221h-3.56l-5.51-7.896h-0.525v7.896h-2.911v-19.291h3.411
	c2.549,0,4.389,0.479,5.522,1.437c1.248,1.066,1.873,2.474,1.873,4.222c0,1.367-0.391,2.541-1.174,3.524
	C906.478,376.265,905.446,376.894,904.163,377.168z M900.539,374.957h0.925c2.757,0,4.136-1.053,4.136-3.161
	c0-1.974-1.342-2.961-4.024-2.961h-1.037V374.957z"/>
<path fill="#686868" d="M923.941,368.96l-2.362,1.399c-0.442-0.766-0.862-1.266-1.262-1.499c-0.416-0.267-0.954-0.4-1.612-0.4
	c-0.808,0-1.479,0.229-2.012,0.688c-0.533,0.45-0.799,1.017-0.799,1.7c0,0.942,0.699,1.701,2.098,2.276l1.925,0.788
	c1.566,0.634,2.71,1.407,3.436,2.319c0.724,0.913,1.086,2.032,1.086,3.357c0,1.776-0.591,3.243-1.773,4.402
	c-1.192,1.167-2.671,1.751-4.436,1.751c-1.675,0-3.058-0.498-4.148-1.494c-1.075-0.995-1.746-2.392-2.012-4.192l2.948-0.649
	c0.134,1.133,0.368,1.916,0.701,2.348c0.599,0.833,1.473,1.25,2.623,1.25c0.908,0,1.661-0.304,2.261-0.912
	c0.6-0.607,0.901-1.377,0.901-2.31c0-0.374-0.053-0.717-0.157-1.029c-0.104-0.313-0.267-0.599-0.488-0.861
	c-0.219-0.262-0.504-0.508-0.856-0.737c-0.349-0.228-0.765-0.447-1.248-0.655l-1.862-0.774c-2.641-1.115-3.96-2.747-3.96-4.894
	c0-1.448,0.554-2.659,1.661-3.633c1.109-0.982,2.487-1.474,4.135-1.474C920.955,365.724,922.692,366.802,923.941,368.96z"/>
<path fill="#686868" d="M930.863,366.099v11.611c0,1.656,0.272,2.868,0.812,3.633c0.809,1.108,1.945,1.661,3.411,1.661
	c1.475,0,2.615-0.554,3.424-1.661c0.541-0.741,0.812-1.951,0.812-3.633v-11.611h2.911v12.419c0,2.033-0.633,3.707-1.899,5.024
	c-1.424,1.466-3.174,2.198-5.248,2.198s-3.82-0.733-5.235-2.198c-1.265-1.317-1.898-2.991-1.898-5.024v-12.419H930.863z"/>
<path fill="#686868" d="M957.764,368.96l-2.361,1.399c-0.442-0.766-0.862-1.266-1.263-1.499c-0.416-0.267-0.953-0.4-1.611-0.4
	c-0.808,0-1.479,0.229-2.012,0.688c-0.533,0.45-0.8,1.017-0.8,1.7c0,0.942,0.701,1.701,2.099,2.276l1.924,0.788
	c1.566,0.634,2.711,1.407,3.436,2.319c0.724,0.913,1.087,2.032,1.087,3.357c0,1.776-0.592,3.243-1.774,4.402
	c-1.191,1.167-2.67,1.751-4.435,1.751c-1.675,0-3.058-0.498-4.148-1.494c-1.075-0.995-1.745-2.392-2.011-4.192l2.947-0.649
	c0.134,1.133,0.367,1.916,0.701,2.348c0.599,0.833,1.475,1.25,2.623,1.25c0.909,0,1.662-0.304,2.262-0.912
	c0.6-0.607,0.899-1.377,0.899-2.31c0-0.374-0.052-0.717-0.155-1.029c-0.104-0.313-0.268-0.599-0.487-0.861
	c-0.221-0.262-0.506-0.508-0.856-0.737c-0.349-0.228-0.767-0.447-1.249-0.655l-1.862-0.774c-2.64-1.115-3.961-2.747-3.961-4.894
	c0-1.448,0.554-2.659,1.662-3.633c1.108-0.982,2.486-1.474,4.136-1.474C954.778,365.724,956.515,366.802,957.764,368.96z"/>
<path fill="#686868" d="M875.042,392.388v3.44c-1.682-1.406-3.422-2.11-5.22-2.11c-1.982,0-3.651,0.712-5.007,2.136
	c-1.365,1.414-2.048,3.146-2.048,5.194c0,2.023,0.683,3.729,2.048,5.12c1.364,1.389,3.038,2.084,5.019,2.084
	c1.024,0,1.894-0.166,2.61-0.499c0.4-0.166,0.813-0.391,1.242-0.674c0.428-0.284,0.881-0.624,1.355-1.024v3.515
	c-1.666,0.945-3.413,1.418-5.245,1.418c-2.755,0-5.107-0.962-7.054-2.885c-1.94-1.939-2.91-4.278-2.91-7.017
	c0-2.455,0.812-4.645,2.435-6.568c1.998-2.356,4.583-3.534,7.754-3.534C871.753,390.984,873.426,391.453,875.042,392.388z"/>
<path fill="#686868" d="M877.627,400.911c0-2.713,0.995-5.044,2.985-6.992c1.98-1.949,4.361-2.923,7.142-2.923
	c2.747,0,5.103,0.983,7.067,2.947c1.973,1.964,2.959,4.325,2.959,7.08c0,2.772-0.99,5.124-2.971,7.055
	c-1.99,1.94-4.392,2.91-7.204,2.91c-2.49,0-4.724-0.863-6.706-2.585C878.718,406.497,877.627,404,877.627,400.911z M880.56,400.942
	c0,2.129,0.716,3.88,2.148,5.252c1.424,1.372,3.068,2.058,4.932,2.058c2.023,0,3.729-0.698,5.12-2.096
	c1.389-1.413,2.085-3.135,2.085-5.164c0-2.054-0.686-3.776-2.061-5.165c-1.365-1.398-3.055-2.096-5.069-2.096
	c-2.006,0-3.7,0.698-5.082,2.096C881.252,397.208,880.56,398.913,880.56,400.942z"/>
<path fill="#686868" d="M904.348,391.358v16.546h5.669v2.734h-8.579v-19.279H904.348z"/>
<path fill="#686868" d="M915.685,391.358v16.546h5.669v2.734h-8.578v-19.279H915.685z"/>
<path fill="#686868" d="M934.752,394.093h-7.73v4.634h7.505v2.734h-7.505v6.444h7.73v2.734h-10.639v-19.279h10.639V394.093z"/>
<path fill="#686868" d="M948.488,400.599h7.966v0.636c0,1.449-0.171,2.731-0.512,3.846c-0.333,1.033-0.895,1.998-1.686,2.897
	c-1.79,2.014-4.066,3.021-6.83,3.021c-2.698,0-5.007-0.974-6.93-2.922c-1.923-1.956-2.884-4.304-2.884-7.042
	c0-2.798,0.977-5.17,2.934-7.118c1.956-1.956,4.337-2.935,7.142-2.935c1.506,0,2.913,0.307,4.22,0.919
	c1.248,0.613,2.477,1.61,3.684,2.989l-2.072,1.985c-1.582-2.106-3.51-3.159-5.782-3.159c-2.039,0-3.75,0.704-5.132,2.11
	c-1.381,1.382-2.073,3.114-2.073,5.195c0,2.148,0.77,3.917,2.311,5.307c1.44,1.29,3,1.935,4.682,1.935
	c1.432,0,2.719-0.482,3.859-1.445c1.139-0.971,1.777-2.134,1.91-3.487h-4.806V400.599z"/>
<path fill="#686868" d="M970.751,394.093h-7.729v4.634h7.505v2.734h-7.505v6.444h7.729v2.734h-10.639v-19.279h10.639V394.093z"/>
<path fill="#8092FF" d="M970.751,246.767v19.034c-9.304-7.783-18.928-11.675-28.877-11.675c-10.962,0-20.196,3.937-27.702,11.813
	c-7.555,7.83-11.328,17.409-11.328,28.739c0,11.191,3.773,20.633,11.328,28.324c7.551,7.691,16.809,11.537,27.771,11.537
	c5.665,0,10.477-0.921,14.436-2.763c2.213-0.922,4.503-2.165,6.875-3.731c2.373-1.566,4.87-3.455,7.496-5.666v19.447
	c-9.214,5.227-18.884,7.841-29.016,7.841c-15.244,0-28.255-5.319-39.031-15.957c-10.731-10.731-16.097-23.672-16.097-38.826
	c0-13.586,4.491-25.698,13.473-36.337c11.054-13.032,25.354-19.55,42.9-19.55C952.56,238.996,961.815,241.588,970.751,246.767z"/>
<path fill="#686868" d="M943.977,230.108v19.034c-9.304-7.783-18.928-11.675-28.877-11.675c-10.962,0-20.196,3.937-27.702,11.813
	c-7.555,7.83-11.328,17.409-11.328,28.739c0,11.191,3.773,20.633,11.328,28.324c7.551,7.691,16.809,11.537,27.771,11.537
	c5.665,0,10.477-0.921,14.436-2.763c2.213-0.922,4.503-2.165,6.875-3.731c2.373-1.566,4.87-3.455,7.496-5.666v19.447
	c-9.213,5.227-18.884,7.841-29.015,7.841c-15.244,0-28.255-5.319-39.031-15.957c-10.731-10.731-16.097-23.672-16.097-38.826
	c0-13.586,4.491-25.698,13.473-36.337c11.054-13.032,25.354-19.55,42.9-19.55C925.786,222.337,935.041,224.929,943.977,230.108z"/>
<rect x="844" y="222" fill="#8092FF" width="7" height="188"/>
<rect x="1056" y="525" fill="#A8CC46" width="76" height="76"/>
<path fill="#686868" d="M1072.952,367.129v3.443c-1.683-1.408-3.424-2.112-5.223-2.112c-1.983,0-3.653,0.711-5.01,2.137
	c-1.366,1.416-2.049,3.149-2.049,5.198c0,2.024,0.683,3.732,2.049,5.123c1.365,1.391,3.04,2.087,5.023,2.087
	c1.024,0,1.895-0.167,2.611-0.5c0.4-0.166,0.813-0.391,1.243-0.675c0.428-0.283,0.881-0.625,1.356-1.024v3.518
	c-1.667,0.945-3.416,1.418-5.249,1.418c-2.756,0-5.11-0.963-7.058-2.886c-1.941-1.941-2.912-4.281-2.912-7.022
	c0-2.457,0.812-4.648,2.437-6.571c1.999-2.358,4.586-3.537,7.759-3.537C1069.661,365.724,1071.335,366.192,1072.952,367.129z"/>
<path fill="#686868" d="M1079.536,366.099v11.611c0,1.656,0.27,2.868,0.812,3.633c0.807,1.108,1.945,1.661,3.411,1.661
	c1.475,0,2.615-0.554,3.423-1.661c0.542-0.741,0.813-1.951,0.813-3.633v-11.611h2.911v12.419c0,2.033-0.633,3.707-1.9,5.024
	c-1.424,1.466-3.173,2.198-5.247,2.198c-2.074,0-3.819-0.733-5.235-2.198c-1.266-1.317-1.899-2.991-1.899-5.024v-12.419H1079.536z"
	/>
<path fill="#686868" d="M1102.063,377.168l5.972,8.221h-3.56l-5.51-7.896h-0.525v7.896h-2.911v-19.291h3.411
	c2.549,0,4.389,0.479,5.522,1.437c1.248,1.066,1.873,2.474,1.873,4.222c0,1.367-0.391,2.541-1.174,3.524
	C1104.378,376.265,1103.346,376.894,1102.063,377.168z M1098.439,374.957h0.925c2.757,0,4.136-1.053,4.136-3.161
	c0-1.974-1.342-2.961-4.024-2.961h-1.037V374.957z"/>
<path fill="#686868" d="M1121.841,368.96l-2.362,1.399c-0.442-0.766-0.862-1.266-1.262-1.499c-0.416-0.267-0.954-0.4-1.612-0.4
	c-0.807,0-1.479,0.229-2.012,0.688c-0.533,0.45-0.799,1.017-0.799,1.7c0,0.942,0.699,1.701,2.098,2.276l1.925,0.788
	c1.566,0.634,2.71,1.407,3.436,2.319c0.724,0.913,1.086,2.032,1.086,3.357c0,1.776-0.591,3.243-1.773,4.402
	c-1.192,1.167-2.671,1.751-4.436,1.751c-1.675,0-3.057-0.498-4.148-1.494c-1.075-0.995-1.746-2.392-2.012-4.192l2.948-0.649
	c0.134,1.133,0.368,1.916,0.7,2.348c0.599,0.833,1.473,1.25,2.623,1.25c0.908,0,1.661-0.304,2.261-0.912
	c0.6-0.607,0.901-1.377,0.901-2.31c0-0.374-0.053-0.717-0.157-1.029c-0.104-0.313-0.267-0.599-0.488-0.861
	c-0.219-0.262-0.504-0.508-0.856-0.737c-0.349-0.228-0.766-0.447-1.248-0.655l-1.862-0.774c-2.641-1.115-3.96-2.747-3.96-4.894
	c0-1.448,0.554-2.659,1.661-3.633c1.109-0.982,2.487-1.474,4.135-1.474C1118.855,365.724,1120.592,366.802,1121.841,368.96z"/>
<path fill="#686868" d="M1128.763,366.099v11.611c0,1.656,0.272,2.868,0.812,3.633c0.809,1.108,1.945,1.661,3.411,1.661
	c1.475,0,2.615-0.554,3.424-1.661c0.541-0.741,0.812-1.951,0.812-3.633v-11.611h2.911v12.419c0,2.033-0.633,3.707-1.899,5.024
	c-1.424,1.466-3.174,2.198-5.248,2.198c-2.074,0-3.82-0.733-5.235-2.198c-1.265-1.317-1.898-2.991-1.898-5.024v-12.419H1128.763z"/>
<path fill="#686868" d="M1155.664,368.96l-2.361,1.399c-0.442-0.766-0.862-1.266-1.263-1.499c-0.416-0.267-0.953-0.4-1.611-0.4
	c-0.808,0-1.479,0.229-2.012,0.688c-0.533,0.45-0.8,1.017-0.8,1.7c0,0.942,0.7,1.701,2.099,2.276l1.924,0.788
	c1.566,0.634,2.711,1.407,3.436,2.319c0.724,0.913,1.087,2.032,1.087,3.357c0,1.776-0.592,3.243-1.774,4.402
	c-1.191,1.167-2.67,1.751-4.435,1.751c-1.675,0-3.058-0.498-4.148-1.494c-1.075-0.995-1.745-2.392-2.011-4.192l2.947-0.649
	c0.134,1.133,0.367,1.916,0.7,2.348c0.599,0.833,1.475,1.25,2.623,1.25c0.909,0,1.662-0.304,2.262-0.912
	c0.6-0.607,0.899-1.377,0.899-2.31c0-0.374-0.052-0.717-0.155-1.029c-0.104-0.313-0.268-0.599-0.487-0.861
	c-0.221-0.262-0.506-0.508-0.856-0.737c-0.349-0.228-0.767-0.447-1.249-0.655l-1.862-0.774c-2.64-1.115-3.961-2.747-3.961-4.894
	c0-1.448,0.554-2.659,1.662-3.633c1.108-0.982,2.486-1.474,4.136-1.474C1152.678,365.724,1154.415,366.802,1155.664,368.96z"/>
<path fill="#686868" d="M1072.942,392.388v3.44c-1.682-1.406-3.422-2.11-5.22-2.11c-1.982,0-3.651,0.712-5.007,2.136
	c-1.365,1.414-2.048,3.146-2.048,5.194c0,2.023,0.683,3.729,2.048,5.12c1.364,1.389,3.038,2.084,5.02,2.084
	c1.024,0,1.894-0.166,2.61-0.499c0.4-0.166,0.813-0.391,1.242-0.674c0.428-0.284,0.881-0.624,1.355-1.024v3.515
	c-1.666,0.945-3.413,1.418-5.245,1.418c-2.755,0-5.107-0.962-7.054-2.885c-1.94-1.939-2.91-4.278-2.91-7.017
	c0-2.455,0.812-4.645,2.435-6.568c1.998-2.356,4.583-3.534,7.754-3.534C1069.653,390.984,1071.326,391.453,1072.942,392.388z"/>
<path fill="#686868" d="M1075.526,400.911c0-2.713,0.995-5.044,2.985-6.992c1.98-1.949,4.361-2.923,7.142-2.923
	c2.747,0,5.103,0.983,7.067,2.947c1.973,1.964,2.959,4.325,2.959,7.08c0,2.772-0.99,5.124-2.971,7.055
	c-1.99,1.94-4.391,2.91-7.204,2.91c-2.49,0-4.724-0.863-6.706-2.585C1076.618,406.497,1075.526,404,1075.526,400.911z
	 M1078.46,400.942c0,2.129,0.715,3.88,2.148,5.252c1.424,1.372,3.068,2.058,4.932,2.058c2.023,0,3.729-0.698,5.12-2.096
	c1.39-1.413,2.085-3.135,2.085-5.164c0-2.054-0.686-3.776-2.061-5.165c-1.365-1.398-3.055-2.096-5.069-2.096
	c-2.006,0-3.7,0.698-5.082,2.096C1079.152,397.208,1078.46,398.913,1078.46,400.942z"/>
<path fill="#686868" d="M1102.248,391.358v16.546h5.669v2.734h-8.579v-19.279H1102.248z"/>
<path fill="#686868" d="M1113.585,391.358v16.546h5.669v2.734h-8.578v-19.279H1113.585z"/>
<path fill="#686868" d="M1132.652,394.093h-7.73v4.634h7.505v2.734h-7.505v6.444h7.73v2.734h-10.639v-19.279h10.639V394.093z"/>
<path fill="#686868" d="M1146.388,400.599h7.966v0.636c0,1.449-0.171,2.731-0.512,3.846c-0.333,1.033-0.895,1.998-1.686,2.897
	c-1.79,2.014-4.066,3.021-6.83,3.021c-2.698,0-5.007-0.974-6.93-2.922c-1.923-1.956-2.884-4.304-2.884-7.042
	c0-2.798,0.977-5.17,2.934-7.118c1.956-1.956,4.337-2.935,7.142-2.935c1.506,0,2.912,0.307,4.22,0.919
	c1.248,0.613,2.477,1.61,3.684,2.989l-2.072,1.985c-1.582-2.106-3.51-3.159-5.782-3.159c-2.039,0-3.75,0.704-5.132,2.11
	c-1.381,1.382-2.073,3.114-2.073,5.195c0,2.148,0.77,3.917,2.311,5.307c1.44,1.29,3,1.935,4.682,1.935
	c1.432,0,2.719-0.482,3.859-1.445c1.139-0.971,1.777-2.134,1.91-3.487h-4.806V400.599z"/>
<path fill="#686868" d="M1168.651,394.093h-7.729v4.634h7.505v2.734h-7.505v6.444h7.729v2.734h-10.639v-19.279h10.639V394.093z"/>
<path fill="#A8CC46" d="M1168.651,246.767v19.034c-9.304-7.783-18.928-11.675-28.877-11.675c-10.962,0-20.196,3.937-27.702,11.813
	c-7.555,7.83-11.328,17.409-11.328,28.739c0,11.191,3.773,20.633,11.328,28.324c7.551,7.691,16.809,11.537,27.771,11.537
	c5.665,0,10.477-0.921,14.436-2.763c2.213-0.922,4.502-2.165,6.875-3.731c2.373-1.566,4.87-3.455,7.496-5.666v19.447
	c-9.214,5.227-18.884,7.841-29.016,7.841c-15.244,0-28.255-5.319-39.031-15.957c-10.731-10.731-16.097-23.672-16.097-38.826
	c0-13.586,4.491-25.698,13.473-36.337c11.054-13.032,25.354-19.55,42.9-19.55C1150.46,238.996,1159.715,241.588,1168.651,246.767z"
	/>
<path fill="#686868" d="M1141.877,230.108v19.034c-9.304-7.783-18.928-11.675-28.877-11.675c-10.962,0-20.196,3.937-27.702,11.813
	c-7.555,7.83-11.328,17.409-11.328,28.739c0,11.191,3.773,20.633,11.328,28.324c7.551,7.691,16.809,11.537,27.771,11.537
	c5.665,0,10.477-0.921,14.436-2.763c2.213-0.922,4.503-2.165,6.875-3.731c2.373-1.566,4.87-3.455,7.496-5.666v19.447
	c-9.214,5.227-18.884,7.841-29.016,7.841c-15.244,0-28.255-5.319-39.031-15.957c-10.731-10.731-16.097-23.672-16.097-38.826
	c0-13.586,4.491-25.698,13.473-36.337c11.053-13.032,25.354-19.55,42.9-19.55C1123.686,222.337,1132.941,224.929,1141.877,230.108z"
	/>
<rect x="1042" y="222" fill="#A8CC46" width="7" height="188"/>
<rect x="1252" y="525" fill="#2C9AE5" width="76" height="76"/>
<path fill="#686868" d="M1271.052,367.129v3.443c-1.683-1.408-3.424-2.112-5.223-2.112c-1.983,0-3.653,0.711-5.01,2.137
	c-1.366,1.416-2.049,3.149-2.049,5.198c0,2.024,0.683,3.732,2.049,5.123c1.365,1.391,3.04,2.087,5.023,2.087
	c1.024,0,1.895-0.167,2.611-0.5c0.4-0.166,0.814-0.391,1.243-0.675c0.428-0.283,0.881-0.625,1.356-1.024v3.518
	c-1.667,0.945-3.416,1.418-5.249,1.418c-2.756,0-5.11-0.963-7.058-2.886c-1.941-1.941-2.912-4.281-2.912-7.022
	c0-2.457,0.812-4.648,2.437-6.571c1.999-2.358,4.586-3.537,7.759-3.537C1267.761,365.724,1269.435,366.192,1271.052,367.129z"/>
<path fill="#686868" d="M1277.636,366.099v11.611c0,1.656,0.27,2.868,0.812,3.633c0.808,1.108,1.945,1.661,3.411,1.661
	c1.474,0,2.615-0.554,3.423-1.661c0.542-0.741,0.813-1.951,0.813-3.633v-11.611h2.911v12.419c0,2.033-0.633,3.707-1.9,5.024
	c-1.424,1.466-3.173,2.198-5.247,2.198c-2.074,0-3.819-0.733-5.235-2.198c-1.266-1.317-1.899-2.991-1.899-5.024v-12.419H1277.636z"
	/>
<path fill="#686868" d="M1300.163,377.168l5.972,8.221h-3.56l-5.51-7.896h-0.525v7.896h-2.911v-19.291h3.411
	c2.549,0,4.389,0.479,5.522,1.437c1.249,1.066,1.873,2.474,1.873,4.222c0,1.367-0.391,2.541-1.174,3.524
	C1302.478,376.265,1301.446,376.894,1300.163,377.168z M1296.539,374.957h0.925c2.757,0,4.136-1.053,4.136-3.161
	c0-1.974-1.342-2.961-4.024-2.961h-1.037V374.957z"/>
<path fill="#686868" d="M1319.941,368.96l-2.362,1.399c-0.442-0.766-0.862-1.266-1.262-1.499c-0.416-0.267-0.954-0.4-1.612-0.4
	c-0.807,0-1.479,0.229-2.012,0.688c-0.533,0.45-0.799,1.017-0.799,1.7c0,0.942,0.699,1.701,2.098,2.276l1.925,0.788
	c1.566,0.634,2.71,1.407,3.436,2.319c0.724,0.913,1.086,2.032,1.086,3.357c0,1.776-0.591,3.243-1.773,4.402
	c-1.192,1.167-2.671,1.751-4.436,1.751c-1.675,0-3.057-0.498-4.148-1.494c-1.075-0.995-1.745-2.392-2.012-4.192l2.948-0.649
	c0.134,1.133,0.368,1.916,0.7,2.348c0.599,0.833,1.473,1.25,2.623,1.25c0.908,0,1.661-0.304,2.261-0.912
	c0.6-0.607,0.901-1.377,0.901-2.31c0-0.374-0.053-0.717-0.157-1.029c-0.104-0.313-0.267-0.599-0.488-0.861
	c-0.219-0.262-0.504-0.508-0.856-0.737c-0.349-0.228-0.765-0.447-1.248-0.655l-1.862-0.774c-2.641-1.115-3.96-2.747-3.96-4.894
	c0-1.448,0.554-2.659,1.661-3.633c1.109-0.982,2.487-1.474,4.135-1.474C1316.955,365.724,1318.692,366.802,1319.941,368.96z"/>
<path fill="#686868" d="M1326.863,366.099v11.611c0,1.656,0.272,2.868,0.812,3.633c0.809,1.108,1.945,1.661,3.411,1.661
	c1.475,0,2.615-0.554,3.424-1.661c0.541-0.741,0.812-1.951,0.812-3.633v-11.611h2.911v12.419c0,2.033-0.633,3.707-1.899,5.024
	c-1.424,1.466-3.174,2.198-5.248,2.198c-2.074,0-3.82-0.733-5.235-2.198c-1.265-1.317-1.898-2.991-1.898-5.024v-12.419H1326.863z"/>
<path fill="#686868" d="M1353.764,368.96l-2.361,1.399c-0.442-0.766-0.862-1.266-1.263-1.499c-0.416-0.267-0.953-0.4-1.611-0.4
	c-0.808,0-1.479,0.229-2.012,0.688c-0.533,0.45-0.8,1.017-0.8,1.7c0,0.942,0.7,1.701,2.099,2.276l1.924,0.788
	c1.566,0.634,2.711,1.407,3.436,2.319c0.724,0.913,1.087,2.032,1.087,3.357c0,1.776-0.592,3.243-1.774,4.402
	c-1.191,1.167-2.67,1.751-4.435,1.751c-1.675,0-3.058-0.498-4.148-1.494c-1.075-0.995-1.745-2.392-2.011-4.192l2.947-0.649
	c0.135,1.133,0.367,1.916,0.701,2.348c0.599,0.833,1.475,1.25,2.623,1.25c0.909,0,1.662-0.304,2.262-0.912
	c0.6-0.607,0.899-1.377,0.899-2.31c0-0.374-0.052-0.717-0.155-1.029c-0.104-0.313-0.268-0.599-0.487-0.861
	c-0.221-0.262-0.506-0.508-0.856-0.737c-0.349-0.228-0.767-0.447-1.249-0.655l-1.862-0.774c-2.64-1.115-3.961-2.747-3.961-4.894
	c0-1.448,0.554-2.659,1.662-3.633c1.108-0.982,2.486-1.474,4.136-1.474C1350.778,365.724,1352.515,366.802,1353.764,368.96z"/>
<path fill="#686868" d="M1271.042,392.388v3.44c-1.682-1.406-3.422-2.11-5.22-2.11c-1.982,0-3.651,0.712-5.007,2.136
	c-1.365,1.414-2.048,3.146-2.048,5.194c0,2.023,0.683,3.729,2.048,5.12c1.364,1.389,3.038,2.084,5.02,2.084
	c1.024,0,1.894-0.166,2.61-0.499c0.4-0.166,0.813-0.391,1.242-0.674c0.428-0.284,0.881-0.624,1.355-1.024v3.515
	c-1.666,0.945-3.413,1.418-5.245,1.418c-2.755,0-5.107-0.962-7.054-2.885c-1.94-1.939-2.91-4.278-2.91-7.017
	c0-2.455,0.812-4.645,2.435-6.568c1.998-2.356,4.583-3.534,7.754-3.534C1267.753,390.984,1269.426,391.453,1271.042,392.388z"/>
<path fill="#686868" d="M1273.626,400.911c0-2.713,0.995-5.044,2.985-6.992c1.98-1.949,4.361-2.923,7.142-2.923
	c2.747,0,5.103,0.983,7.067,2.947c1.973,1.964,2.959,4.325,2.959,7.08c0,2.772-0.99,5.124-2.971,7.055
	c-1.99,1.94-4.391,2.91-7.204,2.91c-2.49,0-4.724-0.863-6.706-2.585C1274.718,406.497,1273.626,404,1273.626,400.911z
	 M1276.56,400.942c0,2.129,0.715,3.88,2.148,5.252c1.424,1.372,3.068,2.058,4.932,2.058c2.023,0,3.729-0.698,5.12-2.096
	c1.389-1.413,2.085-3.135,2.085-5.164c0-2.054-0.686-3.776-2.061-5.165c-1.365-1.398-3.055-2.096-5.069-2.096
	c-2.006,0-3.7,0.698-5.082,2.096C1277.252,397.208,1276.56,398.913,1276.56,400.942z"/>
<path fill="#686868" d="M1300.348,391.358v16.546h5.669v2.734h-8.578v-19.279H1300.348z"/>
<path fill="#686868" d="M1311.685,391.358v16.546h5.669v2.734h-8.578v-19.279H1311.685z"/>
<path fill="#686868" d="M1330.752,394.093h-7.73v4.634h7.505v2.734h-7.505v6.444h7.73v2.734h-10.639v-19.279h10.639V394.093z"/>
<path fill="#686868" d="M1344.488,400.599h7.966v0.636c0,1.449-0.171,2.731-0.512,3.846c-0.333,1.033-0.895,1.998-1.686,2.897
	c-1.79,2.014-4.066,3.021-6.83,3.021c-2.698,0-5.007-0.974-6.93-2.922c-1.923-1.956-2.884-4.304-2.884-7.042
	c0-2.798,0.978-5.17,2.934-7.118c1.956-1.956,4.337-2.935,7.142-2.935c1.506,0,2.912,0.307,4.22,0.919
	c1.248,0.613,2.477,1.61,3.683,2.989l-2.072,1.985c-1.582-2.106-3.51-3.159-5.782-3.159c-2.039,0-3.75,0.704-5.132,2.11
	c-1.381,1.382-2.073,3.114-2.073,5.195c0,2.148,0.77,3.917,2.311,5.307c1.44,1.29,3,1.935,4.682,1.935
	c1.432,0,2.719-0.482,3.859-1.445c1.139-0.971,1.777-2.134,1.91-3.487h-4.806V400.599z"/>
<path fill="#686868" d="M1366.751,394.093h-7.729v4.634h7.505v2.734h-7.505v6.444h7.729v2.734h-10.639v-19.279h10.639V394.093z"/>
<path fill="#2C9AE5" d="M1366.751,246.767v19.034c-9.304-7.783-18.928-11.675-28.877-11.675c-10.962,0-20.196,3.937-27.702,11.813
	c-7.555,7.83-11.328,17.409-11.328,28.739c0,11.191,3.773,20.633,11.328,28.324c7.551,7.691,16.809,11.537,27.771,11.537
	c5.665,0,10.477-0.921,14.436-2.763c2.213-0.922,4.503-2.165,6.875-3.731c2.373-1.566,4.87-3.455,7.496-5.666v19.447
	c-9.214,5.227-18.884,7.841-29.016,7.841c-15.244,0-28.255-5.319-39.031-15.957c-10.731-10.731-16.097-23.672-16.097-38.826
	c0-13.586,4.491-25.698,13.473-36.337c11.053-13.032,25.354-19.55,42.9-19.55C1348.56,238.996,1357.815,241.588,1366.751,246.767z"
	/>
<path fill="#686868" d="M1339.977,230.108v19.034c-9.304-7.783-18.928-11.675-28.877-11.675c-10.962,0-20.196,3.937-27.702,11.813
	c-7.555,7.83-11.328,17.409-11.328,28.739c0,11.191,3.773,20.633,11.328,28.324c7.551,7.691,16.809,11.537,27.771,11.537
	c5.665,0,10.477-0.921,14.436-2.763c2.213-0.922,4.503-2.165,6.875-3.731c2.373-1.566,4.87-3.455,7.496-5.666v19.447
	c-9.214,5.227-18.884,7.841-29.016,7.841c-15.244,0-28.254-5.319-39.031-15.957c-10.731-10.731-16.097-23.672-16.097-38.826
	c0-13.586,4.491-25.698,13.473-36.337c11.054-13.032,25.354-19.55,42.9-19.55C1321.786,222.337,1331.041,224.929,1339.977,230.108z"
	/>
<rect x="1240" y="222" fill="#2C9AE5" width="7" height="188"/>
<rect x="1450" y="525" fill="#EA476A" width="76" height="76"/>
<path fill="#686868" d="M1469.052,367.129v3.443c-1.683-1.408-3.424-2.112-5.223-2.112c-1.983,0-3.653,0.711-5.01,2.137
	c-1.366,1.416-2.049,3.149-2.049,5.198c0,2.024,0.683,3.732,2.049,5.123c1.365,1.391,3.04,2.087,5.023,2.087
	c1.024,0,1.895-0.167,2.611-0.5c0.4-0.166,0.814-0.391,1.243-0.675c0.428-0.283,0.881-0.625,1.356-1.024v3.518
	c-1.667,0.945-3.416,1.418-5.249,1.418c-2.756,0-5.11-0.963-7.058-2.886c-1.941-1.941-2.912-4.281-2.912-7.022
	c0-2.457,0.812-4.648,2.437-6.571c1.999-2.358,4.586-3.537,7.759-3.537C1465.761,365.724,1467.435,366.192,1469.052,367.129z"/>
<path fill="#686868" d="M1475.636,366.099v11.611c0,1.656,0.27,2.868,0.812,3.633c0.808,1.108,1.945,1.661,3.411,1.661
	c1.474,0,2.615-0.554,3.423-1.661c0.542-0.741,0.813-1.951,0.813-3.633v-11.611h2.911v12.419c0,2.033-0.633,3.707-1.9,5.024
	c-1.424,1.466-3.173,2.198-5.247,2.198c-2.074,0-3.819-0.733-5.235-2.198c-1.266-1.317-1.899-2.991-1.899-5.024v-12.419H1475.636z"
	/>
<path fill="#686868" d="M1498.163,377.168l5.972,8.221h-3.56l-5.51-7.896h-0.525v7.896h-2.911v-19.291h3.411
	c2.549,0,4.389,0.479,5.522,1.437c1.249,1.066,1.873,2.474,1.873,4.222c0,1.367-0.391,2.541-1.174,3.524
	C1500.478,376.265,1499.446,376.894,1498.163,377.168z M1494.539,374.957h0.925c2.757,0,4.136-1.053,4.136-3.161
	c0-1.974-1.342-2.961-4.024-2.961h-1.037V374.957z"/>
<path fill="#686868" d="M1517.941,368.96l-2.362,1.399c-0.442-0.766-0.862-1.266-1.262-1.499c-0.416-0.267-0.954-0.4-1.612-0.4
	c-0.807,0-1.479,0.229-2.012,0.688c-0.533,0.45-0.799,1.017-0.799,1.7c0,0.942,0.699,1.701,2.098,2.276l1.925,0.788
	c1.566,0.634,2.71,1.407,3.436,2.319c0.724,0.913,1.086,2.032,1.086,3.357c0,1.776-0.591,3.243-1.773,4.402
	c-1.192,1.167-2.671,1.751-4.436,1.751c-1.675,0-3.057-0.498-4.148-1.494c-1.075-0.995-1.745-2.392-2.012-4.192l2.948-0.649
	c0.134,1.133,0.368,1.916,0.7,2.348c0.599,0.833,1.473,1.25,2.623,1.25c0.908,0,1.661-0.304,2.261-0.912
	c0.6-0.607,0.901-1.377,0.901-2.31c0-0.374-0.053-0.717-0.157-1.029c-0.104-0.313-0.267-0.599-0.488-0.861
	c-0.219-0.262-0.504-0.508-0.856-0.737c-0.349-0.228-0.765-0.447-1.248-0.655l-1.862-0.774c-2.641-1.115-3.96-2.747-3.96-4.894
	c0-1.448,0.554-2.659,1.661-3.633c1.109-0.982,2.487-1.474,4.135-1.474C1514.955,365.724,1516.692,366.802,1517.941,368.96z"/>
<path fill="#686868" d="M1524.863,366.099v11.611c0,1.656,0.272,2.868,0.812,3.633c0.809,1.108,1.945,1.661,3.411,1.661
	c1.475,0,2.615-0.554,3.424-1.661c0.541-0.741,0.812-1.951,0.812-3.633v-11.611h2.911v12.419c0,2.033-0.633,3.707-1.899,5.024
	c-1.424,1.466-3.174,2.198-5.248,2.198c-2.074,0-3.82-0.733-5.235-2.198c-1.265-1.317-1.898-2.991-1.898-5.024v-12.419H1524.863z"/>
<path fill="#686868" d="M1551.764,368.96l-2.361,1.399c-0.442-0.766-0.862-1.266-1.263-1.499c-0.416-0.267-0.953-0.4-1.611-0.4
	c-0.808,0-1.479,0.229-2.012,0.688c-0.533,0.45-0.8,1.017-0.8,1.7c0,0.942,0.7,1.701,2.099,2.276l1.924,0.788
	c1.566,0.634,2.711,1.407,3.436,2.319c0.724,0.913,1.087,2.032,1.087,3.357c0,1.776-0.592,3.243-1.774,4.402
	c-1.191,1.167-2.67,1.751-4.435,1.751c-1.675,0-3.058-0.498-4.148-1.494c-1.075-0.995-1.745-2.392-2.011-4.192l2.947-0.649
	c0.135,1.133,0.367,1.916,0.701,2.348c0.599,0.833,1.475,1.25,2.623,1.25c0.909,0,1.662-0.304,2.262-0.912
	c0.6-0.607,0.899-1.377,0.899-2.31c0-0.374-0.052-0.717-0.155-1.029c-0.104-0.313-0.268-0.599-0.487-0.861
	c-0.221-0.262-0.506-0.508-0.856-0.737c-0.349-0.228-0.767-0.447-1.249-0.655l-1.862-0.774c-2.64-1.115-3.961-2.747-3.961-4.894
	c0-1.448,0.554-2.659,1.662-3.633c1.108-0.982,2.486-1.474,4.136-1.474C1548.778,365.724,1550.515,366.802,1551.764,368.96z"/>
<path fill="#686868" d="M1469.042,392.388v3.44c-1.682-1.406-3.422-2.11-5.22-2.11c-1.982,0-3.651,0.712-5.007,2.136
	c-1.365,1.414-2.048,3.146-2.048,5.194c0,2.023,0.683,3.729,2.048,5.12c1.364,1.389,3.038,2.084,5.02,2.084
	c1.024,0,1.894-0.166,2.61-0.499c0.4-0.166,0.813-0.391,1.242-0.674c0.428-0.284,0.881-0.624,1.355-1.024v3.515
	c-1.666,0.945-3.413,1.418-5.245,1.418c-2.755,0-5.107-0.962-7.054-2.885c-1.94-1.939-2.91-4.278-2.91-7.017
	c0-2.455,0.812-4.645,2.435-6.568c1.998-2.356,4.583-3.534,7.754-3.534C1465.753,390.984,1467.426,391.453,1469.042,392.388z"/>
<path fill="#686868" d="M1471.626,400.911c0-2.713,0.995-5.044,2.985-6.992c1.98-1.949,4.361-2.923,7.142-2.923
	c2.747,0,5.103,0.983,7.067,2.947c1.973,1.964,2.959,4.325,2.959,7.08c0,2.772-0.99,5.124-2.971,7.055
	c-1.99,1.94-4.391,2.91-7.204,2.91c-2.49,0-4.724-0.863-6.706-2.585C1472.718,406.497,1471.626,404,1471.626,400.911z
	 M1474.56,400.942c0,2.129,0.715,3.88,2.148,5.252c1.424,1.372,3.068,2.058,4.932,2.058c2.023,0,3.729-0.698,5.12-2.096
	c1.389-1.413,2.085-3.135,2.085-5.164c0-2.054-0.686-3.776-2.061-5.165c-1.365-1.398-3.055-2.096-5.069-2.096
	c-2.006,0-3.7,0.698-5.082,2.096C1475.252,397.208,1474.56,398.913,1474.56,400.942z"/>
<path fill="#686868" d="M1498.348,391.358v16.546h5.669v2.734h-8.578v-19.279H1498.348z"/>
<path fill="#686868" d="M1509.685,391.358v16.546h5.669v2.734h-8.578v-19.279H1509.685z"/>
<path fill="#686868" d="M1528.752,394.093h-7.73v4.634h7.505v2.734h-7.505v6.444h7.73v2.734h-10.639v-19.279h10.639V394.093z"/>
<path fill="#686868" d="M1542.488,400.599h7.966v0.636c0,1.449-0.171,2.731-0.512,3.846c-0.333,1.033-0.895,1.998-1.686,2.897
	c-1.79,2.014-4.066,3.021-6.83,3.021c-2.698,0-5.007-0.974-6.93-2.922c-1.923-1.956-2.884-4.304-2.884-7.042
	c0-2.798,0.978-5.17,2.934-7.118c1.956-1.956,4.337-2.935,7.142-2.935c1.506,0,2.912,0.307,4.22,0.919
	c1.248,0.613,2.477,1.61,3.683,2.989l-2.072,1.985c-1.582-2.106-3.51-3.159-5.782-3.159c-2.039,0-3.75,0.704-5.132,2.11
	c-1.381,1.382-2.073,3.114-2.073,5.195c0,2.148,0.77,3.917,2.311,5.307c1.44,1.29,3,1.935,4.682,1.935
	c1.432,0,2.719-0.482,3.859-1.445c1.139-0.971,1.777-2.134,1.91-3.487h-4.806V400.599z"/>
<path fill="#686868" d="M1564.751,394.093h-7.729v4.634h7.505v2.734h-7.505v6.444h7.729v2.734h-10.639v-19.279h10.639V394.093z"/>
<path fill="#EA476A" d="M1564.751,246.767v19.034c-9.304-7.783-18.928-11.675-28.877-11.675c-10.962,0-20.196,3.937-27.702,11.813
	c-7.555,7.83-11.328,17.409-11.328,28.739c0,11.191,3.773,20.633,11.328,28.324c7.551,7.691,16.809,11.537,27.771,11.537
	c5.665,0,10.477-0.921,14.436-2.763c2.213-0.922,4.503-2.165,6.875-3.731c2.373-1.566,4.87-3.455,7.496-5.666v19.447
	c-9.214,5.227-18.884,7.841-29.016,7.841c-15.244,0-28.255-5.319-39.031-15.957c-10.731-10.731-16.097-23.672-16.097-38.826
	c0-13.586,4.491-25.698,13.473-36.337c11.053-13.032,25.354-19.55,42.9-19.55C1546.56,238.996,1555.815,241.588,1564.751,246.767z"
	/>
<path fill="#686868" d="M1537.977,230.108v19.034c-9.304-7.783-18.928-11.675-28.877-11.675c-10.962,0-20.196,3.937-27.702,11.813
	c-7.555,7.83-11.328,17.409-11.328,28.739c0,11.191,3.773,20.633,11.328,28.324c7.551,7.691,16.809,11.537,27.771,11.537
	c5.665,0,10.477-0.921,14.436-2.763c2.213-0.922,4.503-2.165,6.875-3.731c2.373-1.566,4.87-3.455,7.496-5.666v19.447
	c-9.214,5.227-18.884,7.841-29.016,7.841c-15.244,0-28.254-5.319-39.031-15.957c-10.731-10.731-16.097-23.672-16.097-38.826
	c0-13.586,4.491-25.698,13.473-36.337c11.054-13.032,25.354-19.55,42.9-19.55C1519.786,222.337,1529.041,224.929,1537.977,230.108z"
	/>
<rect x="1438" y="222" fill="#EA476A" width="7" height="188"/>
<rect x="1648" y="525" fill="#D69061" width="76" height="76"/>
<path fill="#686868" d="M1667.052,367.129v3.443c-1.683-1.408-3.424-2.112-5.223-2.112c-1.983,0-3.653,0.711-5.01,2.137
	c-1.366,1.416-2.049,3.149-2.049,5.198c0,2.024,0.683,3.732,2.049,5.123c1.365,1.391,3.04,2.087,5.023,2.087
	c1.024,0,1.895-0.167,2.611-0.5c0.4-0.166,0.814-0.391,1.243-0.675c0.428-0.283,0.881-0.625,1.356-1.024v3.518
	c-1.667,0.945-3.416,1.418-5.249,1.418c-2.756,0-5.11-0.963-7.058-2.886c-1.941-1.941-2.912-4.281-2.912-7.022
	c0-2.457,0.812-4.648,2.437-6.571c1.999-2.358,4.586-3.537,7.759-3.537C1663.761,365.724,1665.435,366.192,1667.052,367.129z"/>
<path fill="#686868" d="M1673.636,366.099v11.611c0,1.656,0.27,2.868,0.812,3.633c0.808,1.108,1.945,1.661,3.411,1.661
	c1.474,0,2.615-0.554,3.423-1.661c0.542-0.741,0.813-1.951,0.813-3.633v-11.611h2.911v12.419c0,2.033-0.633,3.707-1.9,5.024
	c-1.424,1.466-3.173,2.198-5.247,2.198c-2.074,0-3.819-0.733-5.235-2.198c-1.266-1.317-1.899-2.991-1.899-5.024v-12.419H1673.636z"
	/>
<path fill="#686868" d="M1696.163,377.168l5.972,8.221h-3.56l-5.51-7.896h-0.525v7.896h-2.911v-19.291h3.411
	c2.549,0,4.389,0.479,5.522,1.437c1.249,1.066,1.873,2.474,1.873,4.222c0,1.367-0.391,2.541-1.174,3.524
	C1698.478,376.265,1697.446,376.894,1696.163,377.168z M1692.539,374.957h0.925c2.757,0,4.136-1.053,4.136-3.161
	c0-1.974-1.342-2.961-4.024-2.961h-1.037V374.957z"/>
<path fill="#686868" d="M1715.941,368.96l-2.362,1.399c-0.442-0.766-0.862-1.266-1.262-1.499c-0.416-0.267-0.954-0.4-1.612-0.4
	c-0.807,0-1.479,0.229-2.012,0.688c-0.533,0.45-0.799,1.017-0.799,1.7c0,0.942,0.699,1.701,2.098,2.276l1.925,0.788
	c1.566,0.634,2.71,1.407,3.436,2.319c0.724,0.913,1.086,2.032,1.086,3.357c0,1.776-0.591,3.243-1.773,4.402
	c-1.192,1.167-2.671,1.751-4.436,1.751c-1.675,0-3.057-0.498-4.148-1.494c-1.075-0.995-1.745-2.392-2.012-4.192l2.948-0.649
	c0.134,1.133,0.368,1.916,0.7,2.348c0.599,0.833,1.473,1.25,2.623,1.25c0.908,0,1.661-0.304,2.261-0.912
	c0.6-0.607,0.901-1.377,0.901-2.31c0-0.374-0.053-0.717-0.157-1.029c-0.104-0.313-0.267-0.599-0.488-0.861
	c-0.219-0.262-0.504-0.508-0.856-0.737c-0.349-0.228-0.765-0.447-1.248-0.655l-1.862-0.774c-2.641-1.115-3.96-2.747-3.96-4.894
	c0-1.448,0.554-2.659,1.661-3.633c1.109-0.982,2.487-1.474,4.135-1.474C1712.955,365.724,1714.692,366.802,1715.941,368.96z"/>
<path fill="#686868" d="M1722.863,366.099v11.611c0,1.656,0.272,2.868,0.812,3.633c0.809,1.108,1.945,1.661,3.411,1.661
	c1.475,0,2.615-0.554,3.424-1.661c0.541-0.741,0.812-1.951,0.812-3.633v-11.611h2.911v12.419c0,2.033-0.633,3.707-1.899,5.024
	c-1.424,1.466-3.174,2.198-5.248,2.198c-2.074,0-3.82-0.733-5.235-2.198c-1.265-1.317-1.898-2.991-1.898-5.024v-12.419H1722.863z"/>
<path fill="#686868" d="M1749.764,368.96l-2.361,1.399c-0.442-0.766-0.862-1.266-1.263-1.499c-0.416-0.267-0.953-0.4-1.611-0.4
	c-0.808,0-1.479,0.229-2.012,0.688c-0.533,0.45-0.8,1.017-0.8,1.7c0,0.942,0.7,1.701,2.099,2.276l1.924,0.788
	c1.566,0.634,2.711,1.407,3.436,2.319c0.724,0.913,1.087,2.032,1.087,3.357c0,1.776-0.592,3.243-1.774,4.402
	c-1.191,1.167-2.67,1.751-4.435,1.751c-1.675,0-3.058-0.498-4.148-1.494c-1.075-0.995-1.745-2.392-2.011-4.192l2.947-0.649
	c0.135,1.133,0.367,1.916,0.701,2.348c0.599,0.833,1.475,1.25,2.623,1.25c0.909,0,1.662-0.304,2.262-0.912
	c0.6-0.607,0.899-1.377,0.899-2.31c0-0.374-0.052-0.717-0.155-1.029c-0.104-0.313-0.268-0.599-0.487-0.861
	c-0.221-0.262-0.506-0.508-0.856-0.737c-0.349-0.228-0.767-0.447-1.249-0.655l-1.862-0.774c-2.64-1.115-3.961-2.747-3.961-4.894
	c0-1.448,0.554-2.659,1.662-3.633c1.108-0.982,2.486-1.474,4.136-1.474C1746.778,365.724,1748.515,366.802,1749.764,368.96z"/>
<path fill="#686868" d="M1667.042,392.388v3.44c-1.682-1.406-3.422-2.11-5.22-2.11c-1.982,0-3.651,0.712-5.007,2.136
	c-1.365,1.414-2.048,3.146-2.048,5.194c0,2.023,0.683,3.729,2.048,5.12c1.364,1.389,3.038,2.084,5.02,2.084
	c1.024,0,1.894-0.166,2.61-0.499c0.4-0.166,0.813-0.391,1.242-0.674c0.428-0.284,0.881-0.624,1.355-1.024v3.515
	c-1.666,0.945-3.413,1.418-5.245,1.418c-2.755,0-5.107-0.962-7.054-2.885c-1.94-1.939-2.91-4.278-2.91-7.017
	c0-2.455,0.812-4.645,2.435-6.568c1.998-2.356,4.583-3.534,7.754-3.534C1663.753,390.984,1665.426,391.453,1667.042,392.388z"/>
<path fill="#686868" d="M1669.626,400.911c0-2.713,0.995-5.044,2.985-6.992c1.98-1.949,4.361-2.923,7.142-2.923
	c2.747,0,5.103,0.983,7.067,2.947c1.973,1.964,2.959,4.325,2.959,7.08c0,2.772-0.99,5.124-2.971,7.055
	c-1.99,1.94-4.391,2.91-7.204,2.91c-2.49,0-4.724-0.863-6.706-2.585C1670.718,406.497,1669.626,404,1669.626,400.911z
	 M1672.56,400.942c0,2.129,0.715,3.88,2.148,5.252c1.424,1.372,3.068,2.058,4.932,2.058c2.023,0,3.729-0.698,5.12-2.096
	c1.389-1.413,2.085-3.135,2.085-5.164c0-2.054-0.686-3.776-2.061-5.165c-1.365-1.398-3.055-2.096-5.069-2.096
	c-2.006,0-3.7,0.698-5.082,2.096C1673.252,397.208,1672.56,398.913,1672.56,400.942z"/>
<path fill="#686868" d="M1696.348,391.358v16.546h5.669v2.734h-8.578v-19.279H1696.348z"/>
<path fill="#686868" d="M1707.685,391.358v16.546h5.669v2.734h-8.578v-19.279H1707.685z"/>
<path fill="#686868" d="M1726.752,394.093h-7.73v4.634h7.505v2.734h-7.505v6.444h7.73v2.734h-10.639v-19.279h10.639V394.093z"/>
<path fill="#686868" d="M1740.488,400.599h7.966v0.636c0,1.449-0.171,2.731-0.512,3.846c-0.333,1.033-0.895,1.998-1.686,2.897
	c-1.79,2.014-4.066,3.021-6.83,3.021c-2.698,0-5.007-0.974-6.93-2.922c-1.923-1.956-2.884-4.304-2.884-7.042
	c0-2.798,0.978-5.17,2.934-7.118c1.956-1.956,4.337-2.935,7.142-2.935c1.506,0,2.912,0.307,4.22,0.919
	c1.248,0.613,2.477,1.61,3.683,2.989l-2.072,1.985c-1.582-2.106-3.51-3.159-5.782-3.159c-2.039,0-3.75,0.704-5.132,2.11
	c-1.381,1.382-2.073,3.114-2.073,5.195c0,2.148,0.77,3.917,2.311,5.307c1.44,1.29,3,1.935,4.682,1.935
	c1.432,0,2.719-0.482,3.859-1.445c1.139-0.971,1.777-2.134,1.91-3.487h-4.806V400.599z"/>
<path fill="#686868" d="M1762.751,394.093h-7.729v4.634h7.505v2.734h-7.505v6.444h7.729v2.734h-10.639v-19.279h10.639V394.093z"/>
<path fill="#D69061" d="M1762.751,246.767v19.034c-9.304-7.783-18.928-11.675-28.877-11.675c-10.962,0-20.196,3.937-27.702,11.813
	c-7.555,7.83-11.328,17.409-11.328,28.739c0,11.191,3.773,20.633,11.328,28.324c7.551,7.691,16.809,11.537,27.771,11.537
	c5.665,0,10.477-0.921,14.436-2.763c2.213-0.922,4.503-2.165,6.875-3.731c2.373-1.566,4.87-3.455,7.496-5.666v19.447
	c-9.214,5.227-18.884,7.841-29.016,7.841c-15.244,0-28.255-5.319-39.031-15.957c-10.731-10.731-16.097-23.672-16.097-38.826
	c0-13.586,4.491-25.698,13.473-36.337c11.053-13.032,25.354-19.55,42.9-19.55C1744.56,238.996,1753.815,241.588,1762.751,246.767z"
	/>
<path fill="#686868" d="M1735.977,230.108v19.034c-9.304-7.783-18.928-11.675-28.877-11.675c-10.962,0-20.196,3.937-27.702,11.813
	c-7.555,7.83-11.328,17.409-11.328,28.739c0,11.191,3.773,20.633,11.328,28.324c7.551,7.691,16.809,11.537,27.771,11.537
	c5.665,0,10.477-0.921,14.436-2.763c2.213-0.922,4.503-2.165,6.875-3.731c2.373-1.566,4.87-3.455,7.496-5.666v19.447
	c-9.214,5.227-18.884,7.841-29.016,7.841c-15.244,0-28.254-5.319-39.031-15.957c-10.731-10.731-16.097-23.672-16.097-38.826
	c0-13.586,4.491-25.698,13.473-36.337c11.054-13.032,25.354-19.55,42.9-19.55C1717.786,222.337,1727.041,224.929,1735.977,230.108z"
	/>
<rect x="1636" y="222" fill="#D69061" width="7" height="188"/>
<rect x="1846" y="525" fill="#D3D3D3" width="76" height="76"/>
<path fill="#686868" d="M1865.052,367.129v3.443c-1.683-1.408-3.424-2.112-5.223-2.112c-1.983,0-3.653,0.711-5.01,2.137
	c-1.366,1.416-2.049,3.149-2.049,5.198c0,2.024,0.683,3.732,2.049,5.123c1.365,1.391,3.04,2.087,5.023,2.087
	c1.024,0,1.895-0.167,2.611-0.5c0.4-0.166,0.814-0.391,1.243-0.675c0.428-0.283,0.881-0.625,1.356-1.024v3.518
	c-1.667,0.945-3.416,1.418-5.249,1.418c-2.756,0-5.11-0.963-7.058-2.886c-1.941-1.941-2.912-4.281-2.912-7.022
	c0-2.457,0.812-4.648,2.437-6.571c1.999-2.358,4.586-3.537,7.759-3.537C1861.761,365.724,1863.435,366.192,1865.052,367.129z"/>
<path fill="#686868" d="M1871.636,366.099v11.611c0,1.656,0.27,2.868,0.812,3.633c0.808,1.108,1.945,1.661,3.411,1.661
	c1.474,0,2.615-0.554,3.423-1.661c0.542-0.741,0.813-1.951,0.813-3.633v-11.611h2.911v12.419c0,2.033-0.633,3.707-1.9,5.024
	c-1.424,1.466-3.173,2.198-5.247,2.198c-2.074,0-3.819-0.733-5.235-2.198c-1.266-1.317-1.899-2.991-1.899-5.024v-12.419H1871.636z"
	/>
<path fill="#686868" d="M1894.163,377.168l5.972,8.221h-3.56l-5.51-7.896h-0.525v7.896h-2.911v-19.291h3.411
	c2.549,0,4.389,0.479,5.522,1.437c1.249,1.066,1.873,2.474,1.873,4.222c0,1.367-0.391,2.541-1.174,3.524
	C1896.478,376.265,1895.446,376.894,1894.163,377.168z M1890.539,374.957h0.925c2.757,0,4.136-1.053,4.136-3.161
	c0-1.974-1.342-2.961-4.024-2.961h-1.037V374.957z"/>
<path fill="#686868" d="M1913.941,368.96l-2.362,1.399c-0.442-0.766-0.862-1.266-1.262-1.499c-0.416-0.267-0.954-0.4-1.612-0.4
	c-0.807,0-1.479,0.229-2.012,0.688c-0.533,0.45-0.799,1.017-0.799,1.7c0,0.942,0.699,1.701,2.098,2.276l1.925,0.788
	c1.566,0.634,2.71,1.407,3.436,2.319c0.724,0.913,1.086,2.032,1.086,3.357c0,1.776-0.591,3.243-1.773,4.402
	c-1.192,1.167-2.671,1.751-4.436,1.751c-1.675,0-3.057-0.498-4.148-1.494c-1.075-0.995-1.745-2.392-2.012-4.192l2.948-0.649
	c0.134,1.133,0.368,1.916,0.7,2.348c0.599,0.833,1.473,1.25,2.623,1.25c0.908,0,1.661-0.304,2.261-0.912
	c0.6-0.607,0.901-1.377,0.901-2.31c0-0.374-0.053-0.717-0.157-1.029c-0.104-0.313-0.267-0.599-0.488-0.861
	c-0.219-0.262-0.504-0.508-0.856-0.737c-0.349-0.228-0.765-0.447-1.248-0.655l-1.862-0.774c-2.641-1.115-3.96-2.747-3.96-4.894
	c0-1.448,0.554-2.659,1.661-3.633c1.109-0.982,2.487-1.474,4.135-1.474C1910.955,365.724,1912.692,366.802,1913.941,368.96z"/>
<path fill="#686868" d="M1920.863,366.099v11.611c0,1.656,0.272,2.868,0.812,3.633c0.809,1.108,1.945,1.661,3.411,1.661
	c1.475,0,2.615-0.554,3.424-1.661c0.541-0.741,0.812-1.951,0.812-3.633v-11.611h2.911v12.419c0,2.033-0.633,3.707-1.899,5.024
	c-1.424,1.466-3.174,2.198-5.248,2.198c-2.074,0-3.82-0.733-5.235-2.198c-1.265-1.317-1.898-2.991-1.898-5.024v-12.419H1920.863z"/>
<path fill="#686868" d="M1947.764,368.96l-2.361,1.399c-0.442-0.766-0.862-1.266-1.263-1.499c-0.416-0.267-0.953-0.4-1.611-0.4
	c-0.808,0-1.479,0.229-2.012,0.688c-0.533,0.45-0.8,1.017-0.8,1.7c0,0.942,0.7,1.701,2.099,2.276l1.924,0.788
	c1.566,0.634,2.711,1.407,3.436,2.319c0.724,0.913,1.087,2.032,1.087,3.357c0,1.776-0.592,3.243-1.774,4.402
	c-1.191,1.167-2.67,1.751-4.435,1.751c-1.675,0-3.058-0.498-4.148-1.494c-1.075-0.995-1.745-2.392-2.011-4.192l2.947-0.649
	c0.135,1.133,0.367,1.916,0.701,2.348c0.599,0.833,1.475,1.25,2.623,1.25c0.909,0,1.662-0.304,2.262-0.912
	c0.6-0.607,0.899-1.377,0.899-2.31c0-0.374-0.052-0.717-0.155-1.029c-0.104-0.313-0.268-0.599-0.487-0.861
	c-0.221-0.262-0.506-0.508-0.856-0.737c-0.349-0.228-0.767-0.447-1.249-0.655l-1.862-0.774c-2.64-1.115-3.961-2.747-3.961-4.894
	c0-1.448,0.554-2.659,1.662-3.633c1.108-0.982,2.486-1.474,4.136-1.474C1944.778,365.724,1946.515,366.802,1947.764,368.96z"/>
<path fill="#686868" d="M1865.042,392.388v3.44c-1.682-1.406-3.422-2.11-5.22-2.11c-1.982,0-3.651,0.712-5.007,2.136
	c-1.365,1.414-2.048,3.146-2.048,5.194c0,2.023,0.683,3.729,2.048,5.12c1.364,1.389,3.038,2.084,5.02,2.084
	c1.024,0,1.894-0.166,2.61-0.499c0.4-0.166,0.813-0.391,1.242-0.674c0.428-0.284,0.881-0.624,1.355-1.024v3.515
	c-1.666,0.945-3.413,1.418-5.245,1.418c-2.755,0-5.107-0.962-7.054-2.885c-1.94-1.939-2.91-4.278-2.91-7.017
	c0-2.455,0.812-4.645,2.435-6.568c1.998-2.356,4.583-3.534,7.754-3.534C1861.753,390.984,1863.426,391.453,1865.042,392.388z"/>
<path fill="#686868" d="M1867.626,400.911c0-2.713,0.995-5.044,2.985-6.992c1.98-1.949,4.361-2.923,7.142-2.923
	c2.747,0,5.103,0.983,7.067,2.947c1.973,1.964,2.959,4.325,2.959,7.08c0,2.772-0.99,5.124-2.971,7.055
	c-1.99,1.94-4.391,2.91-7.204,2.91c-2.49,0-4.724-0.863-6.706-2.585C1868.718,406.497,1867.626,404,1867.626,400.911z
	 M1870.56,400.942c0,2.129,0.715,3.88,2.148,5.252c1.424,1.372,3.068,2.058,4.932,2.058c2.023,0,3.729-0.698,5.12-2.096
	c1.389-1.413,2.085-3.135,2.085-5.164c0-2.054-0.686-3.776-2.061-5.165c-1.365-1.398-3.055-2.096-5.069-2.096
	c-2.006,0-3.7,0.698-5.082,2.096C1871.252,397.208,1870.56,398.913,1870.56,400.942z"/>
<path fill="#686868" d="M1894.348,391.358v16.546h5.669v2.734h-8.578v-19.279H1894.348z"/>
<path fill="#686868" d="M1905.685,391.358v16.546h5.669v2.734h-8.578v-19.279H1905.685z"/>
<path fill="#686868" d="M1924.752,394.093h-7.73v4.634h7.505v2.734h-7.505v6.444h7.73v2.734h-10.639v-19.279h10.639V394.093z"/>
<path fill="#686868" d="M1938.488,400.599h7.966v0.636c0,1.449-0.171,2.731-0.512,3.846c-0.333,1.033-0.895,1.998-1.686,2.897
	c-1.79,2.014-4.066,3.021-6.83,3.021c-2.698,0-5.007-0.974-6.93-2.922c-1.923-1.956-2.884-4.304-2.884-7.042
	c0-2.798,0.978-5.17,2.934-7.118c1.956-1.956,4.337-2.935,7.142-2.935c1.506,0,2.912,0.307,4.22,0.919
	c1.248,0.613,2.477,1.61,3.683,2.989l-2.072,1.985c-1.582-2.106-3.51-3.159-5.782-3.159c-2.039,0-3.75,0.704-5.132,2.11
	c-1.381,1.382-2.073,3.114-2.073,5.195c0,2.148,0.77,3.917,2.311,5.307c1.44,1.29,3,1.935,4.682,1.935
	c1.432,0,2.719-0.482,3.859-1.445c1.139-0.971,1.777-2.134,1.91-3.487h-4.806V400.599z"/>
<path fill="#686868" d="M1960.751,394.093h-7.729v4.634h7.505v2.734h-7.505v6.444h7.729v2.734h-10.639v-19.279h10.639V394.093z"/>
<path fill="#D3D3D3" d="M1960.751,246.767v19.034c-9.304-7.783-18.928-11.675-28.877-11.675c-10.962,0-20.196,3.937-27.702,11.813
	c-7.555,7.83-11.328,17.409-11.328,28.739c0,11.191,3.773,20.633,11.328,28.324c7.551,7.691,16.809,11.537,27.771,11.537
	c5.665,0,10.477-0.921,14.436-2.763c2.213-0.922,4.503-2.165,6.875-3.731c2.373-1.566,4.87-3.455,7.496-5.666v19.447
	c-9.214,5.227-18.884,7.841-29.016,7.841c-15.244,0-28.255-5.319-39.031-15.957c-10.731-10.731-16.097-23.672-16.097-38.826
	c0-13.586,4.491-25.698,13.473-36.337c11.053-13.032,25.354-19.55,42.9-19.55C1942.56,238.996,1951.815,241.588,1960.751,246.767z"
	/>
<path fill="#686868" d="M1933.977,230.108v19.034c-9.304-7.783-18.928-11.675-28.877-11.675c-10.962,0-20.196,3.937-27.702,11.813
	c-7.555,7.83-11.328,17.409-11.328,28.739c0,11.191,3.773,20.633,11.328,28.324c7.551,7.691,16.809,11.537,27.771,11.537
	c5.665,0,10.477-0.921,14.436-2.763c2.213-0.922,4.503-2.165,6.875-3.731c2.373-1.566,4.87-3.455,7.496-5.666v19.447
	c-9.214,5.227-18.884,7.841-29.016,7.841c-15.244,0-28.254-5.319-39.031-15.957c-10.731-10.731-16.097-23.672-16.097-38.826
	c0-13.586,4.491-25.698,13.473-36.337c11.054-13.032,25.354-19.55,42.9-19.55C1915.786,222.337,1925.041,224.929,1933.977,230.108z"
	/>
<rect x="1834" y="222" fill="#D3D3D3" width="7" height="188"/>
<rect x="2035" y="525" fill="#7D9E04" width="76" height="76"/>
<path fill="#686868" d="M2060.636,366.099v11.611c0,1.656,0.27,2.868,0.812,3.633c0.807,1.108,1.945,1.661,3.411,1.661
	c1.475,0,2.615-0.554,3.423-1.661c0.542-0.741,0.813-1.951,0.813-3.633v-11.611h2.911v12.419c0,2.033-0.633,3.707-1.9,5.024
	c-1.424,1.466-3.173,2.198-5.247,2.198c-2.074,0-3.819-0.733-5.235-2.198c-1.267-1.317-1.899-2.991-1.899-5.024v-12.419H2060.636z"
	/>
<path fill="#686868" d="M2083.163,377.168l5.972,8.221h-3.56l-5.51-7.896h-0.525v7.896h-2.911v-19.291h3.412
	c2.549,0,4.389,0.479,5.522,1.437c1.249,1.066,1.873,2.474,1.873,4.222c0,1.367-0.391,2.541-1.174,3.524
	C2085.479,376.265,2084.446,376.894,2083.163,377.168z M2079.539,374.957h0.925c2.757,0,4.136-1.053,4.136-3.161
	c0-1.974-1.342-2.961-4.023-2.961h-1.037V374.957z"/>
<path fill="#686868" d="M2102.941,368.96l-2.362,1.399c-0.442-0.766-0.862-1.266-1.262-1.499c-0.416-0.267-0.954-0.4-1.612-0.4
	c-0.808,0-1.479,0.229-2.012,0.688c-0.532,0.45-0.799,1.017-0.799,1.7c0,0.942,0.699,1.701,2.098,2.276l1.925,0.788
	c1.566,0.634,2.71,1.407,3.436,2.319c0.724,0.913,1.086,2.032,1.086,3.357c0,1.776-0.591,3.243-1.773,4.402
	c-1.192,1.167-2.671,1.751-4.436,1.751c-1.675,0-3.058-0.498-4.148-1.494c-1.075-0.995-1.746-2.392-2.012-4.192l2.948-0.649
	c0.134,1.133,0.368,1.916,0.7,2.348c0.6,0.833,1.473,1.25,2.623,1.25c0.908,0,1.661-0.304,2.261-0.912
	c0.6-0.607,0.901-1.377,0.901-2.31c0-0.374-0.053-0.717-0.157-1.029c-0.104-0.313-0.267-0.599-0.488-0.861
	c-0.219-0.262-0.505-0.508-0.856-0.737c-0.349-0.228-0.765-0.447-1.249-0.655l-1.862-0.774c-2.641-1.115-3.96-2.747-3.96-4.894
	c0-1.448,0.554-2.659,1.661-3.633c1.109-0.982,2.487-1.474,4.135-1.474C2099.955,365.724,2101.692,366.802,2102.941,368.96z"/>
<path fill="#686868" d="M2109.863,366.099v11.611c0,1.656,0.272,2.868,0.812,3.633c0.809,1.108,1.945,1.661,3.412,1.661
	c1.475,0,2.615-0.554,3.424-1.661c0.541-0.741,0.812-1.951,0.812-3.633v-11.611h2.911v12.419c0,2.033-0.633,3.707-1.899,5.024
	c-1.425,1.466-3.174,2.198-5.248,2.198s-3.82-0.733-5.235-2.198c-1.265-1.317-1.898-2.991-1.898-5.024v-12.419H2109.863z"/>
<path fill="#686868" d="M2136.764,368.96l-2.361,1.399c-0.442-0.766-0.863-1.266-1.263-1.499c-0.416-0.267-0.953-0.4-1.611-0.4
	c-0.808,0-1.479,0.229-2.012,0.688c-0.533,0.45-0.799,1.017-0.799,1.7c0,0.942,0.7,1.701,2.099,2.276l1.924,0.788
	c1.566,0.634,2.711,1.407,3.436,2.319c0.724,0.913,1.087,2.032,1.087,3.357c0,1.776-0.592,3.243-1.774,4.402
	c-1.191,1.167-2.67,1.751-4.435,1.751c-1.675,0-3.058-0.498-4.148-1.494c-1.075-0.995-1.746-2.392-2.011-4.192l2.947-0.649
	c0.135,1.133,0.367,1.916,0.7,2.348c0.599,0.833,1.475,1.25,2.624,1.25c0.908,0,1.662-0.304,2.262-0.912
	c0.6-0.607,0.898-1.377,0.898-2.31c0-0.374-0.052-0.717-0.155-1.029c-0.104-0.313-0.268-0.599-0.487-0.861
	c-0.221-0.262-0.507-0.508-0.856-0.737c-0.349-0.228-0.767-0.447-1.249-0.655l-1.862-0.774c-2.64-1.115-3.961-2.747-3.961-4.894
	c0-1.448,0.554-2.659,1.662-3.633c1.108-0.982,2.486-1.474,4.136-1.474C2133.778,365.724,2135.515,366.802,2136.764,368.96z"/>
<path fill="#686868" d="M2056.626,400.911c0-2.713,0.995-5.044,2.985-6.992c1.98-1.949,4.361-2.923,7.142-2.923
	c2.747,0,5.103,0.983,7.067,2.947c1.973,1.964,2.959,4.325,2.959,7.08c0,2.772-0.99,5.124-2.971,7.055
	c-1.99,1.94-4.392,2.91-7.204,2.91c-2.49,0-4.724-0.863-6.706-2.585C2057.718,406.497,2056.626,404,2056.626,400.911z
	 M2059.561,400.942c0,2.129,0.715,3.88,2.148,5.252c1.424,1.372,3.068,2.058,4.932,2.058c2.023,0,3.729-0.698,5.12-2.096
	c1.389-1.413,2.085-3.135,2.085-5.164c0-2.054-0.686-3.776-2.061-5.165c-1.365-1.398-3.055-2.096-5.069-2.096
	c-2.007,0-3.7,0.698-5.082,2.096C2060.252,397.208,2059.561,398.913,2059.561,400.942z"/>
<path fill="#686868" d="M2083.348,391.358v16.546h5.669v2.734h-8.579v-19.279H2083.348z"/>
<path fill="#686868" d="M2094.685,391.358v16.546h5.669v2.734h-8.578v-19.279H2094.685z"/>
<path fill="#686868" d="M2113.752,394.093h-7.73v4.634h7.505v2.734h-7.505v6.444h7.73v2.734h-10.639v-19.279h10.639V394.093z"/>
<path fill="#686868" d="M2127.488,400.599h7.966v0.636c0,1.449-0.171,2.731-0.512,3.846c-0.333,1.033-0.895,1.998-1.686,2.897
	c-1.79,2.014-4.066,3.021-6.83,3.021c-2.698,0-5.007-0.974-6.93-2.922c-1.923-1.956-2.884-4.304-2.884-7.042
	c0-2.798,0.978-5.17,2.934-7.118c1.956-1.956,4.337-2.935,7.142-2.935c1.506,0,2.913,0.307,4.22,0.919
	c1.248,0.613,2.477,1.61,3.683,2.989l-2.072,1.985c-1.582-2.106-3.51-3.159-5.782-3.159c-2.039,0-3.75,0.704-5.132,2.11
	c-1.381,1.382-2.073,3.114-2.073,5.195c0,2.148,0.77,3.917,2.311,5.307c1.44,1.29,3,1.935,4.682,1.935
	c1.432,0,2.719-0.482,3.859-1.445c1.139-0.971,1.777-2.134,1.91-3.487h-4.806V400.599z"/>
<path fill="#686868" d="M2149.751,394.093h-7.729v4.634h7.505v2.734h-7.505v6.444h7.729v2.734h-10.639v-19.279h10.639V394.093z"/>
<path fill="#7D9E04" d="M2149.751,246.767v19.034c-9.304-7.783-18.928-11.675-28.877-11.675c-10.962,0-20.196,3.937-27.702,11.813
	c-7.555,7.83-11.328,17.409-11.328,28.739c0,11.191,3.773,20.633,11.328,28.324c7.551,7.691,16.809,11.537,27.771,11.537
	c5.665,0,10.477-0.921,14.436-2.763c2.213-0.922,4.502-2.165,6.875-3.731c2.373-1.566,4.87-3.455,7.496-5.666v19.447
	c-9.213,5.227-18.884,7.841-29.015,7.841c-15.244,0-28.254-5.319-39.031-15.957c-10.731-10.731-16.097-23.672-16.097-38.826
	c0-13.586,4.491-25.698,13.473-36.337c11.054-13.032,25.354-19.55,42.9-19.55C2131.56,238.996,2140.815,241.588,2149.751,246.767z"
	/>
<path fill="#686868" d="M2122.977,230.108v19.034c-9.304-7.783-18.928-11.675-28.877-11.675c-10.962,0-20.196,3.937-27.702,11.813
	c-7.555,7.83-11.328,17.409-11.328,28.739c0,11.191,3.773,20.633,11.328,28.324c7.551,7.691,16.809,11.537,27.771,11.537
	c5.665,0,10.477-0.921,14.436-2.763c2.213-0.922,4.502-2.165,6.875-3.731c2.373-1.566,4.87-3.455,7.497-5.666v19.447
	c-9.214,5.227-18.884,7.841-29.016,7.841c-15.244,0-28.254-5.319-39.031-15.957c-10.731-10.731-16.097-23.672-16.097-38.826
	c0-13.586,4.491-25.698,13.473-36.337c11.054-13.032,25.354-19.55,42.9-19.55C2104.786,222.337,2114.041,224.929,2122.977,230.108z"
	/>
<rect x="2233" y="525" fill="#532589" width="76" height="76"/>
<path fill="#686868" d="M2252.052,367.129v3.443c-1.683-1.408-3.424-2.112-5.223-2.112c-1.983,0-3.653,0.711-5.01,2.137
	c-1.366,1.416-2.049,3.149-2.049,5.198c0,2.024,0.683,3.732,2.049,5.123c1.365,1.391,3.04,2.087,5.023,2.087
	c1.024,0,1.895-0.167,2.611-0.5c0.4-0.166,0.814-0.391,1.243-0.675c0.428-0.283,0.881-0.625,1.356-1.024v3.518
	c-1.667,0.945-3.416,1.418-5.249,1.418c-2.756,0-5.11-0.963-7.058-2.886c-1.941-1.941-2.912-4.281-2.912-7.022
	c0-2.457,0.812-4.648,2.437-6.571c1.999-2.358,4.586-3.537,7.759-3.537C2248.761,365.724,2250.435,366.192,2252.052,367.129z"/>
<path fill="#686868" d="M2258.636,366.099v11.611c0,1.656,0.27,2.868,0.812,3.633c0.807,1.108,1.945,1.661,3.411,1.661
	c1.475,0,2.615-0.554,3.423-1.661c0.542-0.741,0.813-1.951,0.813-3.633v-11.611h2.911v12.419c0,2.033-0.633,3.707-1.9,5.024
	c-1.424,1.466-3.173,2.198-5.247,2.198c-2.074,0-3.819-0.733-5.235-2.198c-1.267-1.317-1.899-2.991-1.899-5.024v-12.419H2258.636z"
	/>
<path fill="#686868" d="M2281.163,377.168l5.972,8.221h-3.56l-5.51-7.896h-0.525v7.896h-2.911v-19.291h3.412
	c2.549,0,4.389,0.479,5.522,1.437c1.249,1.066,1.873,2.474,1.873,4.222c0,1.367-0.391,2.541-1.174,3.524
	C2283.479,376.265,2282.446,376.894,2281.163,377.168z M2277.539,374.957h0.925c2.757,0,4.136-1.053,4.136-3.161
	c0-1.974-1.342-2.961-4.023-2.961h-1.037V374.957z"/>
<path fill="#686868" d="M2300.941,368.96l-2.362,1.399c-0.442-0.766-0.862-1.266-1.262-1.499c-0.416-0.267-0.954-0.4-1.612-0.4
	c-0.808,0-1.479,0.229-2.012,0.688c-0.532,0.45-0.799,1.017-0.799,1.7c0,0.942,0.699,1.701,2.098,2.276l1.925,0.788
	c1.566,0.634,2.71,1.407,3.436,2.319c0.724,0.913,1.086,2.032,1.086,3.357c0,1.776-0.591,3.243-1.773,4.402
	c-1.192,1.167-2.671,1.751-4.436,1.751c-1.675,0-3.058-0.498-4.148-1.494c-1.075-0.995-1.746-2.392-2.012-4.192l2.948-0.649
	c0.134,1.133,0.368,1.916,0.7,2.348c0.6,0.833,1.473,1.25,2.623,1.25c0.908,0,1.661-0.304,2.261-0.912
	c0.6-0.607,0.901-1.377,0.901-2.31c0-0.374-0.053-0.717-0.157-1.029c-0.104-0.313-0.267-0.599-0.488-0.861
	c-0.219-0.262-0.505-0.508-0.856-0.737c-0.349-0.228-0.765-0.447-1.249-0.655l-1.862-0.774c-2.641-1.115-3.96-2.747-3.96-4.894
	c0-1.448,0.554-2.659,1.661-3.633c1.109-0.982,2.487-1.474,4.135-1.474C2297.955,365.724,2299.692,366.802,2300.941,368.96z"/>
<path fill="#686868" d="M2307.863,366.099v11.611c0,1.656,0.272,2.868,0.812,3.633c0.809,1.108,1.945,1.661,3.412,1.661
	c1.475,0,2.615-0.554,3.424-1.661c0.541-0.741,0.812-1.951,0.812-3.633v-11.611h2.911v12.419c0,2.033-0.633,3.707-1.899,5.024
	c-1.425,1.466-3.174,2.198-5.248,2.198s-3.82-0.733-5.235-2.198c-1.265-1.317-1.898-2.991-1.898-5.024v-12.419H2307.863z"/>
<path fill="#686868" d="M2334.764,368.96l-2.361,1.399c-0.442-0.766-0.863-1.266-1.263-1.499c-0.416-0.267-0.953-0.4-1.611-0.4
	c-0.808,0-1.479,0.229-2.012,0.688c-0.533,0.45-0.799,1.017-0.799,1.7c0,0.942,0.7,1.701,2.099,2.276l1.924,0.788
	c1.566,0.634,2.711,1.407,3.436,2.319c0.724,0.913,1.087,2.032,1.087,3.357c0,1.776-0.592,3.243-1.774,4.402
	c-1.191,1.167-2.67,1.751-4.435,1.751c-1.675,0-3.058-0.498-4.148-1.494c-1.075-0.995-1.746-2.392-2.011-4.192l2.947-0.649
	c0.135,1.133,0.367,1.916,0.7,2.348c0.599,0.833,1.475,1.25,2.624,1.25c0.908,0,1.662-0.304,2.262-0.912
	c0.6-0.607,0.898-1.377,0.898-2.31c0-0.374-0.052-0.717-0.155-1.029c-0.104-0.313-0.268-0.599-0.487-0.861
	c-0.221-0.262-0.507-0.508-0.856-0.737c-0.349-0.228-0.767-0.447-1.249-0.655l-1.862-0.774c-2.64-1.115-3.961-2.747-3.961-4.894
	c0-1.448,0.554-2.659,1.662-3.633c1.108-0.982,2.486-1.474,4.136-1.474C2331.778,365.724,2333.515,366.802,2334.764,368.96z"/>
<path fill="#686868" d="M2252.042,392.388v3.44c-1.682-1.406-3.422-2.11-5.22-2.11c-1.982,0-3.651,0.712-5.007,2.136
	c-1.365,1.414-2.048,3.146-2.048,5.194c0,2.023,0.683,3.729,2.048,5.12c1.364,1.389,3.038,2.084,5.02,2.084
	c1.024,0,1.894-0.166,2.61-0.499c0.4-0.166,0.813-0.391,1.242-0.674c0.428-0.284,0.881-0.624,1.355-1.024v3.515
	c-1.666,0.945-3.413,1.418-5.245,1.418c-2.755,0-5.107-0.962-7.054-2.885c-1.94-1.939-2.91-4.278-2.91-7.017
	c0-2.455,0.812-4.645,2.435-6.568c1.998-2.356,4.583-3.534,7.754-3.534C2248.753,390.984,2250.426,391.453,2252.042,392.388z"/>
<path fill="#686868" d="M2254.626,400.911c0-2.713,0.995-5.044,2.985-6.992c1.98-1.949,4.361-2.923,7.142-2.923
	c2.747,0,5.103,0.983,7.067,2.947c1.973,1.964,2.959,4.325,2.959,7.08c0,2.772-0.99,5.124-2.971,7.055
	c-1.99,1.94-4.392,2.91-7.204,2.91c-2.49,0-4.724-0.863-6.706-2.585C2255.718,406.497,2254.626,404,2254.626,400.911z
	 M2257.561,400.942c0,2.129,0.715,3.88,2.148,5.252c1.424,1.372,3.068,2.058,4.932,2.058c2.023,0,3.729-0.698,5.12-2.096
	c1.389-1.413,2.085-3.135,2.085-5.164c0-2.054-0.686-3.776-2.061-5.165c-1.365-1.398-3.055-2.096-5.069-2.096
	c-2.007,0-3.7,0.698-5.082,2.096C2258.252,397.208,2257.561,398.913,2257.561,400.942z"/>
<path fill="#686868" d="M2281.348,391.358v16.546h5.669v2.734h-8.579v-19.279H2281.348z"/>
<path fill="#686868" d="M2292.685,391.358v16.546h5.669v2.734h-8.578v-19.279H2292.685z"/>
<path fill="#686868" d="M2311.752,394.093h-7.73v4.634h7.505v2.734h-7.505v6.444h7.73v2.734h-10.639v-19.279h10.639V394.093z"/>
<path fill="#686868" d="M2325.488,400.599h7.966v0.636c0,1.449-0.171,2.731-0.512,3.846c-0.333,1.033-0.895,1.998-1.686,2.897
	c-1.79,2.014-4.066,3.021-6.83,3.021c-2.698,0-5.007-0.974-6.93-2.922c-1.923-1.956-2.884-4.304-2.884-7.042
	c0-2.798,0.978-5.17,2.934-7.118c1.956-1.956,4.337-2.935,7.142-2.935c1.506,0,2.913,0.307,4.22,0.919
	c1.248,0.613,2.477,1.61,3.683,2.989l-2.072,1.985c-1.582-2.106-3.51-3.159-5.782-3.159c-2.039,0-3.75,0.704-5.132,2.11
	c-1.381,1.382-2.073,3.114-2.073,5.195c0,2.148,0.77,3.917,2.311,5.307c1.44,1.29,3,1.935,4.682,1.935
	c1.432,0,2.719-0.482,3.859-1.445c1.139-0.971,1.777-2.134,1.91-3.487h-4.806V400.599z"/>
<path fill="#686868" d="M2347.751,394.093h-7.729v4.634h7.505v2.734h-7.505v6.444h7.729v2.734h-10.639v-19.279h10.639V394.093z"/>
<path fill="#532589" d="M2347.751,246.767v19.034c-9.304-7.783-18.928-11.675-28.877-11.675c-10.962,0-20.196,3.937-27.702,11.813
	c-7.555,7.83-11.328,17.409-11.328,28.739c0,11.191,3.773,20.633,11.328,28.324c7.551,7.691,16.809,11.537,27.771,11.537
	c5.665,0,10.477-0.921,14.436-2.763c2.213-0.922,4.502-2.165,6.875-3.731c2.373-1.566,4.87-3.455,7.496-5.666v19.447
	c-9.213,5.227-18.884,7.841-29.015,7.841c-15.244,0-28.254-5.319-39.031-15.957c-10.731-10.731-16.097-23.672-16.097-38.826
	c0-13.586,4.491-25.698,13.473-36.337c11.054-13.032,25.354-19.55,42.9-19.55C2329.56,238.996,2338.815,241.588,2347.751,246.767z"
	/>
<path fill="#686868" d="M2320.977,230.108v19.034c-9.304-7.783-18.928-11.675-28.877-11.675c-10.962,0-20.196,3.937-27.702,11.813
	c-7.555,7.83-11.328,17.409-11.328,28.739c0,11.191,3.773,20.633,11.328,28.324c7.551,7.691,16.809,11.537,27.771,11.537
	c5.665,0,10.477-0.921,14.436-2.763c2.213-0.922,4.502-2.165,6.875-3.731c2.373-1.566,4.87-3.455,7.497-5.666v19.447
	c-9.214,5.227-18.884,7.841-29.016,7.841c-15.244,0-28.254-5.319-39.031-15.957c-10.731-10.731-16.097-23.672-16.097-38.826
	c0-13.586,4.491-25.698,13.473-36.337c11.054-13.032,25.354-19.55,42.9-19.55C2302.786,222.337,2312.041,224.929,2320.977,230.108z"
	/>
<rect x="2221" y="222" fill="#D3D3D3" width="7" height="188"/>
<text transform="matrix(1 0 0 1 173.4318 118.2574)" font-family="'MyriadPro-Regular'" font-size="24.8744">686868</text>
<text transform="matrix(1 0 0 1 59.0001 652.2308)" font-family="'MyriadPro-Regular'" font-size="24.8744">C2B29B</text>
<text transform="matrix(1 0 0 1 253.5002 652.2307)" font-family="'MyriadPro-Regular'" font-size="24.8744">F2DF2F</text>
<text transform="matrix(1 0 0 1 453.2269 652.2307)" font-family="'MyriadPro-Regular'" font-size="24.8744">F96C35</text>
<text transform="matrix(1 0 0 1 642.7269 652.2307)" font-family="'MyriadPro-Regular'" font-size="24.8744">FC5EB9</text>
<text transform="matrix(1 0 0 1 854.4318 652.2307)" font-family="'MyriadPro-Regular'" font-size="24.8744">8092FF</text>
<text transform="matrix(1 0 0 1 1043.9318 652.2307)" font-family="'MyriadPro-Regular'" font-size="24.8744">A8CC46</text>
<text transform="matrix(1 0 0 1 1243.6584 652.2307)" font-family="'MyriadPro-Regular'" font-size="24.8744">2C9AE5</text>
<text transform="matrix(1 0 0 1 1446.1584 652.2307)" font-family="'MyriadPro-Regular'" font-size="24.8744">EA476A</text>
<text transform="matrix(1 0 0 1 1652.0911 652.2307)" font-family="'MyriadPro-Regular'" font-size="24.8744">D69061</text>
<text transform="matrix(1 0 0 1 1841.5911 652.2307)" font-family="'MyriadPro-Regular'" font-size="24.8744">D3D3D3</text>
<text transform="matrix(1 0 0 1 2041.3177 652.2307)" font-family="'MyriadPro-Regular'" font-size="24.8744">7D9E04</text>
<text transform="matrix(1 0 0 1 2230.8176 652.2307)" font-family="'MyriadPro-Regular'" font-size="24.8744">532589</text>
</svg>
