<?xml version="1.0" encoding="utf-8"?>
<!-- Generator: Adobe Illustrator 17.0.0, SVG Export Plug-In . SVG Version: 6.00 Build 0)  -->
<!DOCTYPE svg PUBLIC "-//W3C//DTD SVG 1.1//EN" "http://www.w3.org/Graphics/SVG/1.1/DTD/svg11.dtd">
<svg version="1.1" id="Layer_1" xmlns="http://www.w3.org/2000/svg" xmlns:xlink="http://www.w3.org/1999/xlink" x="0px" y="0px"
	 width="595.28px" height="841.89px" viewBox="0 0 595.28 841.89" enable-background="new 0 0 595.28 841.89" xml:space="preserve">
<path fill="#686969" d="M230.039,525.971v7.172c-3.507-2.933-7.133-4.399-10.881-4.399c-4.131,0-7.61,1.482-10.437,4.451
	c-2.846,2.951-4.269,6.56-4.269,10.827c0,4.216,1.423,7.774,4.269,10.672c2.843,2.898,6.332,4.347,10.463,4.347
	c2.134,0,3.947-0.347,5.44-1.042c0.833-0.346,1.695-0.815,2.59-1.407c0.892-0.59,1.836-1.301,2.825-2.134v7.328
	c-3.472,1.968-7.115,2.954-10.934,2.954c-5.742,0-10.646-2.005-14.704-6.013c-4.043-4.043-6.066-8.919-6.066-14.628
	c0-5.118,1.692-9.682,5.076-13.69c4.165-4.912,9.553-7.367,16.164-7.367C223.183,523.042,226.67,524.019,230.039,525.971z"/>
<path fill="#686969" d="M243.755,523.824v24.189c0,3.45,0.563,5.974,1.692,7.568c1.682,2.307,4.052,3.461,7.105,3.461
	c3.072,0,5.447-1.153,7.131-3.461c1.129-1.543,1.693-4.065,1.693-7.568v-24.189h6.064v25.872c0,4.234-1.318,7.721-3.958,10.465
	c-2.966,3.054-6.611,4.58-10.93,4.58c-4.321,0-7.956-1.526-10.905-4.58c-2.639-2.744-3.956-6.231-3.956-10.465v-25.872H243.755z"/>
<path fill="#686969" d="M290.683,546.884l12.441,17.127h-7.416l-11.479-16.449h-1.094v16.449h-6.064v-40.187h7.107
	c5.31,0,9.143,0.998,11.504,2.994c2.601,2.221,3.903,5.153,3.903,8.796c0,2.847-0.814,5.294-2.446,7.342
	C295.507,545.003,293.356,546.312,290.683,546.884z M283.134,542.278h1.926c5.744,0,8.616-2.195,8.616-6.586
	c0-4.112-2.796-6.168-8.382-6.168h-2.16V542.278z"/>
<path fill="#686969" d="M331.885,529.785l-4.92,2.914c-0.92-1.596-1.797-2.637-2.629-3.123c-0.867-0.555-1.988-0.833-3.358-0.833
	c-1.682,0-3.08,0.477-4.191,1.433c-1.11,0.937-1.664,2.118-1.664,3.541c0,1.962,1.456,3.544,4.371,4.741l4.01,1.641
	c3.263,1.32,5.646,2.931,7.158,4.832c1.508,1.902,2.262,4.233,2.262,6.993c0,3.699-1.232,6.756-3.693,9.17
	c-2.484,2.431-5.564,3.647-9.241,3.647c-3.489,0-6.37-1.038-8.641-3.111c-2.24-2.073-3.636-4.983-4.191-8.732l6.141-1.353
	c0.279,2.36,0.767,3.991,1.459,4.891c1.249,1.735,3.069,2.605,5.465,2.605c1.891,0,3.461-0.634,4.711-1.9
	c1.25-1.264,1.876-2.868,1.876-4.812c0-0.778-0.11-1.493-0.326-2.144c-0.217-0.651-0.556-1.248-1.016-1.794
	c-0.457-0.546-1.051-1.059-1.784-1.535c-0.726-0.476-1.594-0.932-2.601-1.365l-3.879-1.613c-5.501-2.323-8.25-5.722-8.25-10.195
	c0-3.016,1.154-5.539,3.461-7.568c2.31-2.046,5.181-3.07,8.615-3.07C325.664,523.042,329.283,525.29,331.885,529.785z"/>
<path fill="#686969" d="M346.305,523.824v24.189c0,3.45,0.566,5.974,1.691,7.568c1.685,2.307,4.052,3.461,7.107,3.461
	c3.072,0,5.447-1.153,7.132-3.461c1.128-1.543,1.692-4.065,1.692-7.568v-24.189h6.064v25.872c0,4.234-1.318,7.721-3.955,10.465
	c-2.967,3.054-6.612,4.58-10.933,4.58s-7.957-1.526-10.906-4.58c-2.636-2.744-3.954-6.231-3.954-10.465v-25.872H346.305z"/>
<path fill="#686969" d="M402.345,529.785l-4.919,2.914c-0.921-1.596-1.797-2.637-2.632-3.123c-0.867-0.555-1.985-0.833-3.356-0.833
	c-1.684,0-3.08,0.477-4.191,1.433c-1.111,0.937-1.666,2.118-1.666,3.541c0,1.962,1.459,3.544,4.374,4.741l4.008,1.641
	c3.261,1.32,5.648,2.931,7.158,4.832c1.508,1.902,2.264,4.233,2.264,6.993c0,3.699-1.234,6.756-3.696,9.17
	c-2.481,2.431-5.562,3.647-9.239,3.647c-3.489,0-6.371-1.038-8.641-3.111c-2.24-2.073-3.636-4.983-4.19-8.732l6.139-1.353
	c0.28,2.36,0.764,3.991,1.459,4.891c1.247,1.735,3.073,2.605,5.465,2.605c1.893,0,3.462-0.634,4.712-1.9
	c1.25-1.264,1.872-2.868,1.872-4.812c0-0.778-0.109-1.493-0.323-2.144c-0.217-0.651-0.557-1.248-1.015-1.794
	c-0.46-0.546-1.055-1.059-1.784-1.535c-0.728-0.476-1.597-0.932-2.602-1.365l-3.879-1.613c-5.5-2.323-8.251-5.722-8.251-10.195
	c0-3.016,1.154-5.539,3.462-7.568c2.308-2.046,5.179-3.07,8.616-3.07C396.124,523.042,399.742,525.29,402.345,529.785z"/>
<path fill="#686969" d="M230.019,578.591v7.166c-3.505-2.93-7.129-4.396-10.874-4.396c-4.128,0-7.605,1.484-10.43,4.45
	c-2.844,2.947-4.266,6.554-4.266,10.821c0,4.214,1.422,7.767,4.266,10.665c2.842,2.894,6.328,4.342,10.457,4.342
	c2.132,0,3.945-0.345,5.436-1.04c0.833-0.346,1.694-0.814,2.588-1.403c0.891-0.591,1.834-1.301,2.823-2.134v7.322
	c-3.47,1.97-7.111,2.954-10.927,2.954c-5.739,0-10.639-2.004-14.695-6.01c-4.041-4.039-6.062-8.913-6.062-14.619
	c0-5.115,1.691-9.676,5.073-13.682c4.162-4.907,9.547-7.362,16.153-7.362C223.167,575.665,226.652,576.641,230.019,578.591z"/>
<path fill="#686969" d="M235.402,596.344c0-5.652,2.073-10.509,6.218-14.566c4.126-4.06,9.084-6.088,14.877-6.088
	c5.722,0,10.631,2.048,14.722,6.14c4.11,4.092,6.165,9.01,6.165,14.749c0,5.776-2.061,10.674-6.19,14.697
	c-4.145,4.042-9.148,6.062-15.007,6.062c-5.187,0-9.842-1.797-13.969-5.386C237.676,607.981,235.402,602.78,235.402,596.344z
	 M241.514,596.41c0,4.434,1.491,8.083,4.474,10.941c2.967,2.859,6.391,4.288,10.274,4.288c4.215,0,7.768-1.454,10.667-4.367
	c2.894-2.944,4.343-6.531,4.343-10.758c0-4.279-1.429-7.867-4.293-10.759c-2.843-2.912-6.364-4.367-10.56-4.367
	c-4.18,0-7.708,1.454-10.586,4.367C242.955,588.631,241.514,592.182,241.514,596.41z"/>
<path fill="#686969" d="M291.068,576.445v34.468h11.809v5.695h-17.871v-40.163H291.068z"/>
<path fill="#686969" d="M314.686,576.445v34.468h11.809v5.695h-17.869v-40.163H314.686z"/>
<path fill="#686969" d="M354.407,582.141h-16.103v9.653h15.634v5.695h-15.634v13.424h16.103v5.695h-22.162v-40.163h22.162V582.141z"
	/>
<path fill="#686969" d="M383.021,595.695h16.595v1.325c0,3.018-0.357,5.689-1.067,8.013c-0.694,2.151-1.865,4.163-3.511,6.036
	c-3.729,4.195-8.47,6.294-14.228,6.294c-5.62,0-10.431-2.029-14.437-6.087c-4.006-4.075-6.008-8.965-6.008-14.67
	c0-5.828,2.036-10.77,6.112-14.827c4.076-4.074,9.034-6.114,14.879-6.114c3.138,0,6.067,0.639,8.792,1.915
	c2.599,1.278,5.159,3.354,7.673,6.228l-4.317,4.135c-3.296-4.388-7.311-6.581-12.046-6.581c-4.248,0-7.811,1.466-10.69,4.396
	c-2.878,2.88-4.319,6.487-4.319,10.821c0,4.475,1.605,8.159,4.814,11.056c2.999,2.688,6.25,4.032,9.753,4.032
	c2.984,0,5.663-1.004,8.04-3.01c2.374-2.024,3.702-4.445,3.978-7.265h-10.012V595.695z"/>
<path fill="#686969" d="M429.399,582.141h-16.102v9.653h15.634v5.695h-15.634v13.424h16.102v5.695h-22.162v-40.163h22.162V582.141z"
	/>
<path fill="#4098D3" d="M429.399,275.232v39.652c-19.382-16.214-39.431-24.322-60.156-24.322c-22.836,0-42.072,8.202-57.709,24.609
	c-15.738,16.311-23.598,36.267-23.598,59.869c0,23.312,7.86,42.983,23.598,59.004c15.731,16.023,35.016,24.033,57.853,24.033
	c11.801,0,21.826-1.918,30.074-5.755c4.61-1.921,9.38-4.51,14.322-7.773c4.943-3.262,10.145-7.198,15.617-11.803v40.513
	c-19.194,10.89-39.339,16.335-60.445,16.335c-31.756,0-58.86-11.081-81.31-33.242c-22.355-22.355-33.533-49.314-33.533-80.882
	c0-28.302,9.355-53.534,28.066-75.698c23.027-27.149,52.817-40.727,89.37-40.727C391.503,259.045,410.783,264.444,429.399,275.232z"
	/>
<path fill="#686969" d="M373.623,240.527v39.652c-19.382-16.214-39.431-24.322-60.156-24.322c-22.836,0-42.072,8.202-57.709,24.609
	c-15.738,16.311-23.598,36.267-23.598,59.869c0,23.312,7.86,42.983,23.598,59.004c15.731,16.023,35.016,24.033,57.853,24.033
	c11.801,0,21.826-1.918,30.074-5.755c4.61-1.921,9.38-4.51,14.322-7.773c4.943-3.262,10.145-7.198,15.617-11.803v40.513
	c-19.194,10.89-39.339,16.335-60.445,16.335c-31.756,0-58.86-11.081-81.31-33.242c-22.355-22.355-33.533-49.314-33.533-80.882
	c0-28.302,9.355-53.534,28.066-75.698c23.027-27.149,52.817-40.727,89.37-40.727C335.727,224.34,355.008,229.739,373.623,240.527z"
	/>
<rect x="165" y="224" fill="#4098D3" width="15" height="391"/>
</svg>
