<?xml version="1.0" encoding="utf-8"?>
<!-- Generator: Adobe Illustrator 17.0.0, SVG Export Plug-In . SVG Version: 6.00 Build 0)  -->
<!DOCTYPE svg PUBLIC "-//W3C//DTD SVG 1.1//EN" "http://www.w3.org/Graphics/SVG/1.1/DTD/svg11.dtd">
<svg version="1.1" id="Layer_1" xmlns="http://www.w3.org/2000/svg" xmlns:xlink="http://www.w3.org/1999/xlink" x="0px" y="0px"
	 width="100px" height="100px" viewBox="0 0 100 100" enable-background="new 0 0 100 100" xml:space="preserve">
<g>
	<path d="M94.065,67.711c-4.827-1.717-13.752-5.535-19.658-8.062c-2.396-1.025-4.29-1.836-4.997-2.111
		c-0.552-0.281-1.087-0.486-1.605-0.686c-1.812-0.697-3.864-1.486-7.705-6.25c-3.81-4.723-7.192-5.82-8.991-6.035v-5.265
		c0.016-0.144,0.259-0.508,0.513-0.752l3.251-3.251c1.152-1.152,1.163-2.45,1.14-2.817v-4.826c0.004-0.202-0.01-2.013-1.434-3.461
		c-1.073-1.091-2.614-1.644-4.581-1.644c-1.966,0-3.507,0.553-4.58,1.643c-1.425,1.449-1.438,3.26-1.435,3.462
		c0.01,0.616,0.515,1.099,1.134,1.098c0.616-0.01,1.108-0.518,1.099-1.134c-0.001-0.01,0.018-1.072,0.793-1.86
		c0.638-0.648,1.644-0.977,2.989-0.977c3.588,0,3.78,2.372,3.783,2.854l0.004,4.988c0.002,0.023,0.029,0.575-0.49,1.095
		l-3.229,3.229c-0.198,0.187-1.188,1.181-1.188,2.346v5.273c-1.803,0.22-5.178,1.323-8.977,6.034
		c-3.841,4.763-5.894,5.552-7.705,6.25c-0.519,0.199-1.055,0.404-1.509,0.643c-0.804,0.318-2.696,1.127-5.093,2.152
		c-5.906,2.529-14.832,6.348-19.708,8.084C5.827,67.754,0,70.199,0,75.482l0.019,0.203c0.204,1.105,1.062,1.764,2.295,1.764
		c1.276,0,2.726-0.684,3.289-0.977c0.299-0.156,1.472-0.65,3.096-1.336c4.466-1.885,12.779-5.391,24.539-10.854l2.073-0.943
		c6.482-2.955,9.441-4.303,14.689-4.303s8.206,1.348,14.688,4.303l2.064,0.939c11.769,5.467,20.082,8.973,24.547,10.855
		c1.625,0.686,2.799,1.182,3.099,1.338c0.563,0.293,2.012,0.977,3.288,0.977c1.233,0,2.092-0.658,2.296-1.764L100,75.482
		C100,70.197,94.172,67.754,94.065,67.711z"/>
</g>
</svg>
