<?xml version="1.0" encoding="utf-8"?>
<!-- Generator: Adobe Illustrator 17.0.0, SVG Export Plug-In . SVG Version: 6.00 Build 0)  -->
<!DOCTYPE svg PUBLIC "-//W3C//DTD SVG 1.1//EN" "http://www.w3.org/Graphics/SVG/1.1/DTD/svg11.dtd">
<svg version="1.1" id="Calque_1" xmlns="http://www.w3.org/2000/svg" xmlns:xlink="http://www.w3.org/1999/xlink" x="0px" y="0px"
	 width="100px" height="100px" viewBox="0 0 100 100" enable-background="new 0 0 100 100" xml:space="preserve">
<path d="M95.346,45H88v-4.306c2-0.183,3.691-1.83,3.691-3.852c0-1.541-0.826-2.863-2.129-3.492
	c-0.144-0.353-0.271-0.735-0.461-1.241C87.762,28.507,87.082,27,85.826,27H55.045h-0.01h-0.006c-0.504,0-1.28-1-1.646-4h1.947
	c1.432,0,2.67-1.585,2.67-2.943v-1.213C58,17.494,56.762,16,55.33,16h-9.778C44.099,16,43,17.494,43,18.844v1.213
	C43,21.415,44.099,23,45.552,23H47.5c-0.365,3-1.16,4-1.643,4H15.055c-1.256,0-1.975,1.509-3.317,5.117
	c-0.182,0.489-0.346,0.894-0.487,1.241c-1.333,0.617-2.022,1.94-2.022,3.503c0,2.021,1.771,3.649,3.771,3.834V45H5.815
	c-1.79,0-3.246,1.21-3.246,3s1.456,3,3.246,3H13v27.881C13,81.201,14.407,83,16.729,83h67.389C86.438,83,88,81.201,88,78.881V51
	h7.346c1.791,0,3.246-1.21,3.246-3S97.137,45,95.346,45z M49.425,21.59C49.236,21.356,48.95,21,48.648,21h-3.097
	C45.125,21,45,20.719,45,20.057v-1.213C45,18.494,45.125,18,45.552,18h9.778C56,18,56,18.54,56,18.844v1.213
	C56,20.688,55.906,21,55.33,21h-3.096c-0.301,0-0.586,0.355-0.776,0.589c-0.188,0.234-0.265,0.651-0.202,0.945l0.028,0.265
	c0.104,1.038,0.424,2.2,1.263,4.2h-4.211c0.838-2,1.157-3.105,1.262-4.145l0.029-0.283C49.689,22.278,49.615,21.825,49.425,21.59z
	 M13.612,32.837c0.406-1.09,1.22-3.837,1.7-3.837h30.545h9.168h0.02H85.57c0.479,0,1.293,2.742,1.697,3.83
	C87.296,32.904,87.322,33,87.35,33H13.534C13.56,33,13.586,32.908,13.612,32.837z M10.987,37c0-1.041,0.847-2,1.889-2h75.091
	c1.04,0,1.887,0.959,1.887,2s-0.847,2-1.887,2H12.875C11.834,39,10.987,38.041,10.987,37z M5.815,49c-0.687,0-1.246-0.313-1.246-1
	s0.559-1,1.246-1H13v2H5.815z M84.118,81H16.729C15.509,81,15,80.1,15,78.881V41h71v4.468c0,0.014-0.008,0.025-0.008,0.039
	S86,45.531,86,45.545v4.416c0,0.014-0.008,0.025-0.008,0.039S86,50.024,86,50.038v28.843C86,80.1,85.334,81,84.118,81z M95.346,49
	H88v-2h7.346c0.688,0,1.246,0.313,1.246,1S96.033,49,95.346,49z"/>
</svg>
