<?xml version="1.0" encoding="utf-8"?>
<!-- Generator: Adobe Illustrator 17.0.0, SVG Export Plug-In . SVG Version: 6.00 Build 0)  -->
<!DOCTYPE svg PUBLIC "-//W3C//DTD SVG 1.1//EN" "http://www.w3.org/Graphics/SVG/1.1/DTD/svg11.dtd">
<svg version="1.1" id="Layer_1" xmlns="http://www.w3.org/2000/svg" xmlns:xlink="http://www.w3.org/1999/xlink" x="0px" y="0px"
	 width="100px" height="100px" viewBox="0 0 100 100" enable-background="new 0 0 100 100" xml:space="preserve">
<g id="Your_Icon">
	<path d="M51,41.925c2-0.325,4.563-1.863,5.783-4.01c2.691,0.742,5.608,0.089,7.721-2.023c2.112-2.115,2.726-5.104,1.987-7.791
		c2.425-1.378,4.038-3.957,4.038-6.943c0-2.989-1.653-5.565-4.077-6.944c0.737-2.688,0.088-5.677-2.024-7.792
		c-2.111-2.115-5.103-2.765-7.794-2.025c-1.377-2.423-3.952-4.079-6.94-4.079c-2.987,0-5.561,1.656-6.941,4.079
		c-2.688-0.74-5.68-0.09-7.793,2.025c-2.112,2.115-2.763,5.104-2.023,7.792c-2.426,1.379-4.08,3.955-4.08,6.944
		c0,2.986,1.654,5.564,4.08,6.943c-0.74,2.687-0.088,5.676,2.023,7.791c2.113,2.113,5.259,2.765,7.946,2.023
		C44.129,40.063,46,41.602,49,41.926V62H29v9h2.449l6.339,29h23.775L67.9,71H70v-9H51V41.925z M41.683,21.158
		c0-4.426,3.585-8.017,8.011-8.017c4.429,0,8.014,3.591,8.014,8.017c0,4.425-3.585,8.015-8.014,8.015
		C45.268,29.172,41.683,25.583,41.683,21.158z"/>
</g>
</svg>
