<?xml version="1.0" encoding="utf-8"?>
<!-- Generator: Adobe Illustrator 17.0.0, SVG Export Plug-In . SVG Version: 6.00 Build 0)  -->
<!DOCTYPE svg PUBLIC "-//W3C//DTD SVG 1.1//EN" "http://www.w3.org/Graphics/SVG/1.1/DTD/svg11.dtd">
<svg version="1.1" id="Layer_1" xmlns="http://www.w3.org/2000/svg" xmlns:xlink="http://www.w3.org/1999/xlink" x="0px" y="0px"
	 width="595.28px" height="841.89px" viewBox="0 0 595.28 841.89" enable-background="new 0 0 595.28 841.89" xml:space="preserve">
<g>
	<path fill-rule="evenodd" clip-rule="evenodd" fill="#F9F9FA" d="M292.893,428.813v-10.886h-3.619v10.886H292.893L292.893,428.813z
		 M291.083,416.441c1.262,0,2.047-0.837,2.047-1.882c-0.023-1.068-0.786-1.88-2.023-1.88c-1.237,0-2.046,0.812-2.046,1.88
		c0,1.045,0.785,1.882,1.999,1.882H291.083L291.083,416.441z"/>
	<path fill-rule="evenodd" clip-rule="evenodd" fill="#F9F9FA" d="M294.894,428.813h3.618v-6.079c0-0.325,0.023-0.65,0.12-0.882
		c0.259-0.65,0.856-1.324,1.856-1.324c1.309,0,1.833,0.998,1.833,2.462v5.824h3.618v-6.242c0-3.344-1.786-4.899-4.165-4.899
		c-1.953,0-2.811,1.092-3.286,1.834h0.024v-1.579h-3.618C294.942,418.948,294.894,428.813,294.894,428.813L294.894,428.813z"/>
</g>
</svg>
