<?xml version="1.0" encoding="utf-8"?>
<!-- Generator: Adobe Illustrator 17.0.0, SVG Export Plug-In . SVG Version: 6.00 Build 0)  -->
<!DOCTYPE svg PUBLIC "-//W3C//DTD SVG 1.1//EN" "http://www.w3.org/Graphics/SVG/1.1/DTD/svg11.dtd">
<svg version="1.1" id="Layer_1" xmlns="http://www.w3.org/2000/svg" xmlns:xlink="http://www.w3.org/1999/xlink" x="0px" y="0px"
	 width="595.28px" height="841.89px" viewBox="0 0 595.28 841.89" enable-background="new 0 0 595.28 841.89" xml:space="preserve">
<path fill="#FFFFFF" d="M345.109,391.033v14.258c-6.969-5.83-14.179-8.746-21.631-8.746c-8.212,0-15.128,2.949-20.751,8.849
	c-5.659,5.865-8.485,13.041-8.485,21.528c0,8.383,2.826,15.456,8.485,21.217c5.656,5.761,12.591,8.642,20.803,8.642
	c4.243,0,7.848-0.69,10.814-2.069c1.658-0.691,3.373-1.622,5.15-2.795c1.777-1.173,3.648-2.588,5.615-4.244v14.567
	c-6.902,3.916-14.146,5.874-21.735,5.874c-11.419,0-21.165-3.984-29.237-11.953c-8.039-8.039-12.058-17.732-12.058-29.084
	c0-10.177,3.364-19.25,10.092-27.219c8.28-9.762,18.992-14.645,32.135-14.645C331.483,385.212,338.415,387.153,345.109,391.033z"/>
<path fill="#686969" d="M325.053,378.553v14.258c-6.969-5.83-14.179-8.746-21.631-8.746c-8.212,0-15.128,2.949-20.751,8.849
	c-5.659,5.865-8.485,13.041-8.485,21.528c0,8.383,2.826,15.456,8.485,21.217c5.656,5.761,12.591,8.642,20.803,8.642
	c4.243,0,7.848-0.69,10.814-2.069c1.658-0.691,3.373-1.622,5.15-2.795c1.777-1.173,3.648-2.588,5.615-4.244v14.567
	c-6.902,3.916-14.146,5.874-21.735,5.874c-11.419,0-21.165-3.984-29.237-11.953c-8.039-8.039-12.058-17.732-12.058-29.084
	c0-10.177,3.364-19.25,10.092-27.219c8.28-9.762,18.992-14.645,32.135-14.645C311.427,372.733,318.36,374.674,325.053,378.553z"/>
<g>
	<rect x="250" y="373" fill="#FFFFFF" width="5" height="95"/>
</g>
</svg>
