<?xml version="1.0" encoding="utf-8"?>
<!-- Generator: Adobe Illustrator 17.0.0, SVG Export Plug-In . SVG Version: 6.00 Build 0)  -->
<!DOCTYPE svg PUBLIC "-//W3C//DTD SVG 1.1//EN" "http://www.w3.org/Graphics/SVG/1.1/DTD/svg11.dtd">
<svg version="1.1" id="Layer_1" xmlns="http://www.w3.org/2000/svg" xmlns:xlink="http://www.w3.org/1999/xlink" x="0px" y="0px"
	 width="595.28px" height="841.89px" viewBox="0 0 595.28 841.89" enable-background="new 0 0 595.28 841.89" xml:space="preserve">
<g>
	<path fill="#FFFFFF" d="M290.209,418.862c0-2.761,0-5.445,0-8.161c4.84,0,9.633,0,14.501,0c0,2.698,0,5.394,0,8.162
		c0.262,0,0.45,0,0.638,0c1.354,0,2.71,0.037,4.063-0.01c1.447-0.05,2.069,0.927,2.045,2.03c-0.057,2.584-0.018,5.171-0.019,7.757
		c-0.001,1.192-0.655,1.878-1.849,1.879c-8.109,0.007-16.218,0.007-24.327,0c-1.194-0.001-1.851-0.685-1.853-1.878
		c-0.003-2.621-0.002-5.242,0-7.863c0.001-1.244,0.626-1.897,1.869-1.912c1.407-0.017,2.814-0.004,4.222-0.005
		C289.707,418.862,289.916,418.862,290.209,418.862z M291.35,411.799c0,2.37,0,4.683,0,7.017c4.097,0,8.162,0,12.238,0
		c0-2.36,0-4.673,0-7.017C299.507,411.799,295.454,411.799,291.35,411.799z M306.788,429.392c0.903,0,1.815,0.005,2.726-0.002
		c0.666-0.005,0.798-0.139,0.799-0.816c0.003-2.585,0.003-5.17,0-7.756c-0.001-0.69-0.148-0.84-0.835-0.84
		c-8.037-0.002-16.074-0.002-24.111,0c-0.68,0-0.842,0.166-0.842,0.836c-0.002,1.935-0.016,3.869,0.006,5.803
		c0.01,0.866,0.098,1.731,0.15,2.597c0.882,0.059,1.763,0.122,2.646,0.175c0.253,0.015,0.507,0.002,0.738,0.002
		c0-2.272,0-4.451,0-6.63c0-0.723,0.329-1.259,0.98-1.551c0.278-0.124,0.613-0.166,0.922-0.167c4.977-0.01,9.954-0.007,14.931-0.007
		c0.053,0,0.106-0.001,0.158,0.003c1.103,0.073,1.729,0.737,1.731,1.845c0.002,1.759,0.001,3.517,0.001,5.276
		C306.788,428.547,306.788,428.932,306.788,429.392z M297.414,429.392c2.479,0,4.958,0.003,7.437-0.002
		c0.677-0.001,0.801-0.132,0.807-0.804c0.004-0.475,0.001-0.949,0.001-1.424c-0.001-0.929-0.082-1.01-1.031-1.01
		c-4.8-0.001-9.6,0-14.4,0c-0.141,0-0.282-0.003-0.422,0.005c-0.423,0.024-0.638,0.241-0.633,0.674
		c0.006,0.545,0.001,1.09,0.001,1.635c0.001,0.795,0.124,0.923,0.908,0.924C292.526,429.393,294.97,429.392,297.414,429.392z
		 M305.604,425.068c0.016-0.04,0.04-0.072,0.04-0.103c0.007-0.597,0.013-1.195,0.014-1.792c0.001-0.93-0.067-1-0.98-1
		c-4.834-0.001-9.669,0-14.503,0c-0.158,0-0.351-0.05-0.467,0.021c-0.201,0.124-0.493,0.315-0.505,0.494
		c-0.055,0.8-0.024,1.605-0.024,2.38C294.68,425.068,300.126,425.068,305.604,425.068z"/>
	<path fill="#FFFFFF" d="M308.536,423.156c0.566-0.004,1.048,0.472,1.052,1.038c0.003,0.568-0.469,1.045-1.039,1.049
		c-0.575,0.004-1.04-0.458-1.043-1.036C307.502,423.628,307.962,423.16,308.536,423.156z"/>
	<path fill="#FFFFFF" d="M308.563,422.635c-0.584,0.009-1.042-0.423-1.058-0.997c-0.017-0.6,0.441-1.067,1.044-1.065
		c0.578,0.002,1.036,0.454,1.04,1.024C309.592,422.168,309.139,422.627,308.563,422.635z"/>
</g>
</svg>
