<?xml version="1.0" encoding="utf-8"?>
<!-- Generator: Adobe Illustrator 17.0.0, SVG Export Plug-In . SVG Version: 6.00 Build 0)  -->
<!DOCTYPE svg PUBLIC "-//W3C//DTD SVG 1.1//EN" "http://www.w3.org/Graphics/SVG/1.1/DTD/svg11.dtd">
<svg version="1.1" id="Layer_1" xmlns="http://www.w3.org/2000/svg" xmlns:xlink="http://www.w3.org/1999/xlink" x="0px" y="0px"
	 width="100px" height="100px" viewBox="0 0 100 100" enable-background="new 0 0 100 100" xml:space="preserve">
<g>
	<path fill="none" d="M59.33,44.469c0.754,4.421,0.15,8.092-0.144,9.46"/>
	<path fill="none" d="M69.891,57.68c-1.966-1.329-6.666-4.431-10.053-6.056c0,0,0.318-3.249-0.129-6.999"/>
	<path fill="none" d="M48.772,33.928c-19.357-7.484-26.665,11.889-27.326,14.234c-4.186,14.853,1.766,21.276,4.476,23.332"/>
	<path fill="none" d="M47.199,60.888c-5.414-3.025-11.689-7.323-13.7-11.848c-1.237-2.784,2.105-9.759,3.615-10.508
		c1.454-0.721,3.324-1.717,14.008,1.243"/>
	<path fill="none" d="M51.471,48.29c-1.888-0.802-4.21-1.392-5.595-1.704"/>
	<path fill="#231F20" d="M21.446,48.162c0.661-2.344,7.969-21.718,27.326-14.234c-1.803-2.717-4.618-4.849-8.973-5.723
		c-0.844-0.169-1.729-0.256-2.629-0.256c-9.905,0-20.867,10-22.999,20.981c-2.333,12.014,0.926,19.058,10.256,22.169
		c0.487,0.163,0.988,0.287,1.495,0.394C23.212,69.438,17.26,63.015,21.446,48.162z"/>
	<path fill="#231F20" d="M51.403,41.504c-4.408-1.484-7.643-2.232-9.743-2.232c-1.026,0-1.762,0.176-2.189,0.523
		c-0.154,0.125-0.205,0.266-0.178,0.483c0.17,1.319,2.787,3.713,6.583,6.308c1.385,0.312,3.707,0.902,5.595,1.704
		C51.659,46.145,51.694,43.811,51.403,41.504z"/>
	<path fill="#231F20" d="M59.838,51.625c3.387,1.625,8.087,4.727,10.053,6.056c2.302,0.567,4.348,0.887,5.95,0.887
		c0.002,0,0.002,0,0.002,0c1.536,0,2.558-0.294,2.878-0.827c0.061-0.102,0.055-0.261-0.017-0.473
		c-0.866-2.554-9.629-8.703-18.995-12.641C60.156,48.376,59.838,51.625,59.838,51.625z"/>
	<path fill="#231F20" d="M81.246,58.475c-0.49-2.867-5.601-6.594-5.601-6.594c-4.39-3.972-16.372-9.083-16.372-9.083l0.155,0.534
		c8.401,3.437,19.131,10.115,20.306,13.584c0.179,0.528,0.152,0.992-0.082,1.381c-0.539,0.9-1.821,1.357-3.81,1.357c0,0,0,0-0.002,0
		c-4.161-0.002-11.071-1.971-18.035-5.141c-1.88-0.856-3.797-1.822-5.664-2.839c-0.339-0.185-0.678-0.37-1.014-0.558
		c-6.765-3.799-12.592-8.211-12.912-10.7c-0.077-0.593,0.121-1.099,0.569-1.465c0.634-0.516,1.574-0.766,2.875-0.766
		c2.119,0,5.287,0.703,9.547,2.108c-0.031-0.172-0.05-0.347-0.085-0.518c-10.684-2.96-12.554-1.964-14.008-1.243
		c-1.51,0.749-4.852,7.724-3.615,10.508c2.011,4.524,8.287,8.823,13.7,11.848c0.317,0.177,0.63,0.349,0.94,0.517
		c4.313,2.339,7.855,3.794,7.855,3.794c7.894,3.915,17.871,3.588,17.871,3.588C78.341,68.083,81.737,61.342,81.246,58.475z"/>
	<path fill="#231F20" d="M53.988,65.52c-2.145-0.976-4.339-2.093-6.449-3.27C42.953,68.458,35.769,72.9,28.911,72.9h-0.001
		c-1.673,0-3.298-0.259-4.828-0.769c-9.948-3.315-13.436-10.754-10.98-23.408c2.221-11.441,13.693-21.86,24.067-21.86
		c0.972,0,1.928,0.093,2.843,0.276c6.93,1.39,11.168,6.166,12.349,13.544c0.062,0.39,0.107,0.794,0.152,1.198
		c0.29,2.594,0.223,5.485-0.21,8.639c1.919,1.06,3.928,2.083,5.953,3.005c0.311,0.141,0.619,0.267,0.929,0.404
		c0.294-1.368,0.898-5.039,0.144-9.46c-0.072-0.421-0.152-0.847-0.25-1.28c-1.241-5.486-4.7-11.836-13.321-16.298
		c0,0-16.12-8.012-30.21,13.748c-0.962,1.278-13.218,25.336,7.938,35.143c15.724,7.289,28.411-6.713,30.775-10.143
		C54.17,65.597,54.079,65.562,53.988,65.52z"/>
</g>
</svg>
