<?xml version="1.0" encoding="utf-8"?>
<!-- Generator: Adobe Illustrator 17.0.0, SVG Export Plug-In . SVG Version: 6.00 Build 0)  -->
<!DOCTYPE svg PUBLIC "-//W3C//DTD SVG 1.1//EN" "http://www.w3.org/Graphics/SVG/1.1/DTD/svg11.dtd">
<svg version="1.1" id="Layer_1" xmlns="http://www.w3.org/2000/svg" xmlns:xlink="http://www.w3.org/1999/xlink" x="0px" y="0px"
	 width="595.28px" height="841.89px" viewBox="0 0 595.28 841.89" enable-background="new 0 0 595.28 841.89" xml:space="preserve">
<g>
	<path fill="#F9F9FA" d="M291.308,424.312c-1.239,0-2.247,1.011-2.247,2.243c0,1.237,1.007,2.238,2.247,2.238
		c1.243,0,2.25-1,2.25-2.238C293.558,425.323,292.551,424.312,291.308,424.312z"/>
	<path fill="#F9F9FA" d="M289.064,417.67v3.236c2.107,0,4.088,0.821,5.579,2.315c1.491,1.49,2.311,3.478,2.311,5.592h3.25
		C300.203,422.667,295.205,417.67,289.064,417.67z"/>
	<path fill="#F9F9FA" d="M289.068,411.936v3.236c7.511,0,13.627,6.12,13.627,13.641h3.244
		C305.939,419.51,298.369,411.936,289.068,411.936z"/>
</g>
</svg>
