<?xml version="1.0" encoding="utf-8"?>
<!-- Generator: Adobe Illustrator 17.0.0, SVG Export Plug-In . SVG Version: 6.00 Build 0)  -->
<!DOCTYPE svg PUBLIC "-//W3C//DTD SVG 1.1//EN" "http://www.w3.org/Graphics/SVG/1.1/DTD/svg11.dtd">
<svg version="1.1" id="Layer_1" xmlns="http://www.w3.org/2000/svg" xmlns:xlink="http://www.w3.org/1999/xlink" x="0px" y="0px"
	 width="595.28px" height="841.89px" viewBox="0 0 595.28 841.89" enable-background="new 0 0 595.28 841.89" xml:space="preserve">
<path fill="#FFFFFF" d="M297.104,412.523c3.358,0,6.717,0,10.075,0c0.842,0,1.073,0.229,1.073,1.066c0,4.694,0,9.389,0,14.083
	c0,0.786-0.245,1.03-1.035,1.03c-6.753,0-13.507,0-20.26,0c-0.792,0-1.036-0.244-1.036-1.029c0-4.707,0-9.413,0-14.12
	c0-0.786,0.244-1.03,1.035-1.03C290.338,412.522,293.721,412.523,297.104,412.523z M306.775,414.496
	c-0.196,0.136-0.338,0.232-0.477,0.331c-2.962,2.09-5.927,4.176-8.882,6.277c-0.256,0.182-0.418,0.17-0.666-0.007
	c-2.996-2.127-6.001-4.242-9.003-6.36c-0.104-0.073-0.214-0.138-0.335-0.216c0,4.262,0,8.481,0,12.691c6.47,0,12.91,0,19.363,0
	C306.775,422.979,306.775,418.77,306.775,414.496z M305.405,414.01c-5.578,0-11.072,0-16.63,0c0.09,0.076,0.132,0.115,0.178,0.148
	c2.641,1.865,5.286,3.725,7.92,5.601c0.232,0.165,0.351,0.043,0.506-0.066c2.562-1.807,5.124-3.615,7.686-5.423
	C305.161,414.201,305.253,414.126,305.405,414.01z"/>
</svg>
