<?xml version="1.0" encoding="utf-8"?>
<!-- Generator: Adobe Illustrator 17.0.0, SVG Export Plug-In . SVG Version: 6.00 Build 0)  -->
<!DOCTYPE svg PUBLIC "-//W3C//DTD SVG 1.1//EN" "http://www.w3.org/Graphics/SVG/1.1/DTD/svg11.dtd">
<svg version="1.1" id="Layer_1" xmlns="http://www.w3.org/2000/svg" xmlns:xlink="http://www.w3.org/1999/xlink" x="0px" y="0px"
	 width="595.28px" height="841.89px" viewBox="0 0 595.28 841.89" enable-background="new 0 0 595.28 841.89" xml:space="preserve">
<path fill="#F9F9FA" d="M301.627,424.653h-4.117c-0.572,0-1.057-0.202-1.458-0.602c-0.4-0.402-0.6-0.889-0.6-1.462v-2.062h6.175
	c0.573,0,1.062-0.204,1.47-0.612c0.409-0.408,0.613-0.898,0.613-1.468c0-0.57-0.204-1.06-0.614-1.468
	c-0.409-0.407-0.901-0.613-1.474-0.613h-6.169v-2.08c0-0.571-0.204-1.06-0.609-1.468c-0.404-0.409-0.892-0.612-1.46-0.612
	c-0.584,0-1.079,0.2-1.483,0.6c-0.406,0.4-0.61,0.896-0.61,1.482v8.304c0,1.715,0.61,3.179,1.826,4.397
	c1.216,1.217,2.684,1.825,4.397,1.825h4.117c0.571,0,1.061-0.204,1.468-0.612c0.409-0.407,0.613-0.897,0.613-1.469
	c0-0.571-0.204-1.06-0.613-1.467C302.689,424.857,302.2,424.653,301.627,424.653z"/>
</svg>
